<svg xmlns="http://www.w3.org/2000/svg" xmlns:xlink="http://www.w3.org/1999/xlink" width="365" height="331" viewBox="0 0 365 331">
    <defs>
        <linearGradient id="6wfp16qxzb" x1="50%" x2="50%" y1="0%" y2="100%">
            <stop offset="0%" stop-color="#97B5DF"/>
            <stop offset="100%" stop-color="#546B95"/>
        </linearGradient>
        <linearGradient id="sqcyzadode" x1="50%" x2="50%" y1="0%" y2="100%">
            <stop offset="0%" stop-color="#BAD6FF"/>
            <stop offset="100%" stop-color="#8EA8D6"/>
        </linearGradient>
        <linearGradient id="tltghgwfnh" x1="50%" x2="50%" y1="0%" y2="100%">
            <stop offset="0%" stop-color="#F4F7FF"/>
            <stop offset="100%" stop-color="#E6EFFF"/>
        </linearGradient>
        <linearGradient id="dsv7fedonk" x1="50%" x2="50%" y1="-.001%" y2="100.001%">
            <stop offset="0%" stop-color="#BAD6FF"/>
            <stop offset="100%" stop-color="#8EA8D6"/>
        </linearGradient>
        <linearGradient id="jyar6z9q5n" x1="50%" x2="50%" y1="0%" y2="100%">
            <stop offset="0%" stop-color="#FFE672"/>
            <stop offset="100%" stop-color="#E6B631"/>
        </linearGradient>
        <linearGradient id="rgdw2cf7oq" x1="49.999%" x2="49.999%" y1="-.001%" y2="99.999%">
            <stop offset="0%" stop-color="#FB9393"/>
            <stop offset="100%" stop-color="#D45454"/>
        </linearGradient>
        <linearGradient id="8z01wo84ns" x1="50%" x2="50%" y1="0%" y2="100%">
            <stop offset="0%" stop-color="#59DFC3"/>
            <stop offset="100%" stop-color="#2DBC91"/>
        </linearGradient>
        <linearGradient id="n7sc5cgf5u" x1="49.999%" x2="49.999%" y1="-.002%" y2="99.998%">
            <stop offset="0%" stop-color="#FB9393"/>
            <stop offset="100%" stop-color="#D45454"/>
        </linearGradient>
        <linearGradient id="ejokdn9lkx" x1="55.374%" x2="47.244%" y1="10.193%" y2="89.828%">
            <stop offset="0%" stop-color="#FDA36E"/>
            <stop offset="100%" stop-color="#F46B3B"/>
        </linearGradient>
        <path id="dyqskw35ya" d="M70.32.161C64.68.168 59.8 4.109 58.57 9.648L.879 269.669l-.742 5.287c-.93 6.633 3.66 12.769 10.252 13.705.307.043.615.075.924.095l127.35 8.096c6.217.395 11.71-4.04 12.671-10.233l42.202-271.742c1.016-6.537-3.363-12.686-9.841-13.822l-5.9-1.033L70.322.16z"/>
        <path id="p7kjldy5hd" d="M65.129.178c-5.723 0-10.658 4.046-11.816 9.687L.276 268.333c-1.348 6.568 2.85 12.992 9.374 14.349.543.112 1.093.187 1.645.225l119.993 7.982c6.213.413 11.718-4 12.707-10.188l42.6-266.45c1.058-6.622-3.417-12.854-9.995-13.919-.634-.102-1.275-.154-1.917-.154H65.129z"/>
        <path id="f1zys6lsag" d="M59.965.07c-5.13 0-9.548 3.65-10.567 8.728l-49.1 244.71c-1.184 5.896 2.588 11.644 8.425 12.839.472.097.95.161 1.43.193l107.269 7.157c5.56.371 10.482-3.596 11.359-9.154l39.727-251.867c.938-5.941-3.07-11.524-8.95-12.47-.562-.09-1.13-.136-1.698-.136H59.965z"/>
        <path id="01okv5h83j" d="M0.941 0.375L0.04 39.718 31.302 39.718 32.667 0.375z"/>
        <path id="0oc4yim2dm" d="M1.429 0.278L0.171 56.794 43.795 56.794 45.7 0.278z"/>
        <path id="nlj2r8xhjp" d="M0.883 0.323L0.064 34.714 28.498 34.714 29.74 0.323z"/>
        <path id="v1z5c3106t" d="M6.075 2.277C5.605 1.19 4.535.431 3.289.431 1.611.43.402 1.835.251 3.509c0 0-.082.415.098 1.163.246 1.019.824 1.924 1.603 2.614l4.123 3.6 4.053-3.6c.78-.69 1.357-1.595 1.603-2.614.18-.748.099-1.163.099-1.163C11.678 1.835 10.47.43 8.79.43c-1.245 0-2.246.76-2.715 1.846"/>
        <path id="32q9lsrubw" d="M84.084 1.09l-1.132 25.97-33.21-1.828c-.624-.034-1.25-.042-1.875-.023l-1.911.058c-1.896.057-3.78.301-5.627.73l-26.198 6.079c-2.292.532-4.367 1.752-5.944 3.495-1.58 1.746-2.603 3.924-2.939 6.252L.25 76.48c-.377 2.62.925 5.196 3.26 6.448 2.449 1.312 5.373 1.396 7.893.227l8.048-3.732-3.02-12.198-1.002.406 3.351-11.328c1.631 1.284 2.54 3.277 2.441 5.349l-.51 10.642c3.93 1.734 9.264 2.483 16 2.248 6.737-.235 11.726-1.697 14.968-4.386l1.182-25.032 38.394-2.907c1.843-.14 3.58-.918 4.91-2.2 1.293-1.248 1.914-3.037 1.672-4.816L93.069.12l-8.985.97z"/>
    </defs>
    <g fill="none" fill-rule="evenodd">
        <g>
            <g>
                <path fill="#528AD7" fill-rule="nonzero" d="M22.8 124.58c-10.016 43.923 74.034 283.05 252.368 170.68s51.715-325.666-62.71-285.23C98.03 50.464 40.763 45.996 22.8 124.58z" transform="translate(-85 -59) translate(86 59)"/>
                <g>
                    <g transform="translate(-85 -59) translate(86 59) translate(103)">
                        <mask id="dc490fk7gc" fill="#fff">
                            <use xlink:href="#dyqskw35ya"/>
                        </mask>
                        <path fill="url(#6wfp16qxzb)" d="M70.32.161C64.68.168 59.8 4.109 58.57 9.648L.879 269.669l-.742 5.287c-.93 6.633 3.66 12.769 10.252 13.705.307.043.615.075.924.095l127.35 8.096c6.217.395 11.71-4.04 12.671-10.233l42.202-271.742c1.016-6.537-3.363-12.686-9.841-13.822l-5.9-1.033L70.322.16z" mask="url(#dc490fk7gc)"/>
                    </g>
                    <g transform="translate(-85 -59) translate(86 59) translate(103)">
                        <mask id="0mp59x1mif" fill="#fff">
                            <use xlink:href="#p7kjldy5hd"/>
                        </mask>
                        <path fill="url(#sqcyzadode)" d="M65.129.178c-5.723 0-10.658 4.046-11.816 9.687L.276 268.333c-1.348 6.568 2.85 12.992 9.374 14.349.543.112 1.093.187 1.645.225l119.993 7.982c6.213.413 11.718-4 12.707-10.188l42.6-266.45c1.058-6.622-3.417-12.854-9.995-13.919-.634-.102-1.275-.154-1.917-.154H65.129z" mask="url(#0mp59x1mif)"/>
                    </g>
                    <g transform="translate(-85 -59) translate(86 59) translate(114 7)">
                        <mask id="u39tj9thai" fill="#fff">
                            <use xlink:href="#f1zys6lsag"/>
                        </mask>
                        <path fill="url(#tltghgwfnh)" d="M59.965.07c-5.13 0-9.548 3.65-10.567 8.728l-49.1 244.71c-1.184 5.896 2.588 11.644 8.425 12.839.472.097.95.161 1.43.193l107.269 7.157c5.56.371 10.482-3.596 11.359-9.154l39.727-251.867c.938-5.941-3.07-11.524-8.95-12.47-.562-.09-1.13-.136-1.698-.136H59.965z" mask="url(#u39tj9thai)"/>
                        <g fill="#494949" mask="url(#u39tj9thai)" opacity=".413">
                            <g>
                                <path d="M60.49 42.508h.017l.004-.017h-.02l-.002.017M25.491 20.508h.015l.003-.015h-.015l-.003.015M31.509 27.508l.002-.016-.001.001h-.018l-.003.015h.02zM16.508 20.51c0-.007.002-.013.003-.02h-.017l-.005.02h.018zM37.494 26.492l-.003.015h.015l.003-.015h-.015zM40.49 5.508h.017l.003-.016h-.017l-.003.016M28.507 9.508l.002-.015h-.015l-.003.014h.016zM26.509 13.492h-.015l-.003.015h.016l.002-.014M13.49 30.508h.017l.002-.016h-.016l-.002.016M9.494 41.492l-.003.017.018-.017h-.015zM9.491 27.508h.015l.003-.015h-.016l-.002.015M20.283 10.298H11.2c.523-2.83 1.055-5.666 1.596-8.545h9.084c-.532 2.854-1.064 5.683-1.597 8.545zM11.244 0C10.49 4.023 9.744 8.011 9 12h12.747C22.501 7.986 23.255 3.989 24 0H11.244zM11.303 59.24H2.225c.532-2.837 1.064-5.676 1.605-8.546h9.079c-.533 2.854-1.065 5.69-1.606 8.545zM2.251 49C1.498 53.006.754 56.986 0 61h12.757c.754-4.022 1.499-8.011 2.243-12H2.25zM67.188 10.323h-9.079c.533-2.838 1.065-5.683 1.606-8.554h9.077c-.54 2.871-1.072 5.7-1.604 8.554zM58.25 0C57.498 4.022 56.744 8.011 56 12h12.748C69.5 7.986 70.246 3.997 71 0H58.251zM54.49 3.507h.017c0-.005.002-.01.003-.014h-.017c0 .005-.002.01-.003.014M47.51 9.492h-.017l-.004.016h.019l.002-.016z" transform="translate(50 167)"/>
                                <path d="M51.933 15.343h-1.815c.316-1.868.632-3.744.956-5.621h1.805c-.316 1.885-.631 3.744-.946 5.62zm-2.674-5.649c.106-.613.202-1.227.316-1.877h1.805c-.105.623-.218 1.255-.324 1.886-.596 0-1.2-.009-1.797-.009zm3.97-1.922c.22-1.291.43-2.527.64-3.772h-1.85c-.104.623-.209 1.245-.315 1.904h-1.787c.105-.64.21-1.272.324-1.904h-1.866c-.114.669-.22 1.29-.333 1.94h-1.727c-.105.623-.21 1.219-.315 1.859h1.753l-.325 1.913c.605 0 1.218-.009 1.822-.018-.21 1.227-.42 2.444-.63 3.736h-1.813c-.115.64-.22 1.29-.325 1.93h1.849c-.106.642-.21 1.246-.307 1.85h1.77c-.114.669-.22 1.3-.324 1.941h1.832c-.106.613-.202 1.209-.316 1.849h1.779c.745-4.394 1.49-8.788 2.235-13.228h-1.77z" transform="translate(50 167)"/>
                                <path d="M47.509 16.492L47.494 16.492 47.491 16.508 47.506 16.508zM24.51 57.491L24.493 57.491 24.49 57.509zM55.509 20.493h-.016l-.002.014h.016l.002-.014M59.49 30.508h.017l.003-.015h-.017l-.003.015M13.507 41.508l.002-.016h-.015l-.003.016h.016zM9.491 41.508h.015l.003-.017-.018.017zM10.491 41.508h.015l.003-.016h-.016l-.002.016M40.508 60.508l.003-.017v.002h-.02l-.002.015h.02zM42.49 50.508h.017l.003-.016h-.017l-.003.016M38.952 58.321h-1.786c.117-.613.224-1.226.332-1.847h1.777c-.108.621-.214 1.216-.323 1.847zm2.262-1.874c.323-1.849.647-3.644.97-5.447h-1.895c-.214 1.217-.43 2.425-.655 3.687h-1.83c-.108.622-.216 1.2-.315 1.777h-1.821c-.225 1.262-.44 2.46-.656 3.68h-3.68c-.108.62-.225 1.234-.332 1.856h7.333c.116-.622.215-1.209.333-1.839h1.866c.099-.596.207-1.2.323-1.83h1.813c.108-.632.216-1.236.332-1.884h-1.786zM24.509 19.492h-.015l-.003.016h.015l.003-.016M14.696 20.199h1.85l.638-3.52h3.512L21 15h-8.949l-.635 3.497h1.794l-.306 1.69H9.353L9 22h5.37l.326-1.801M14.51 22.492h-.017l-.002.015h.016l.002-.015M35.493 5.492L35.49 5.508 35.507 5.508 35.51 5.492zM28.509 3.491h-.015l-.003.018h.016l.002-.018M46.505 15.506L46.508 15.508 46.511 15.492 46.492 15.492 46.489 15.508 46.508 15.508zM49.49 19.508h.017l.003-.015h-.017l-.003.015M40.505 16.508l.003-.015h-.015l-.002.015h.014z" transform="translate(50 167)"/>
                                <path d="M41.972 20.373l.325-1.716h3.795l-.677 3.585h1.987L47.07 24h1.916L50 18.633h-1.9l.35-1.86h-1.99L46.795 15h-1.912l-.336 1.774H40.68L40 20.373h1.972zM62.037 20.594h-1.735c.104-.624.21-1.23.306-1.834h1.735c-.104.623-.2 1.21-.306 1.834zm-3.305-1.853c.105-.623.21-1.246.316-1.897h1.876c-.105.632-.22 1.265-.324 1.907-.623-.01-1.246-.01-1.868-.01zm5.48.037c.219-1.31.429-2.55.64-3.778h-9.013c-.324 1.89-.64 3.75-.947 5.611h1.745c.096-.605.202-1.191.307-1.86h1.77c-.21 1.265-.411 2.54-.622 3.805h-1.771c-.114.66-.21 1.256-.307 1.852h-1.779c.22-1.275.429-2.53.64-3.787h-1.842c-.315 1.861-.63 3.723-.955 5.63h-1.745c-.113.67-.219 1.292-.333 1.953h1.727c-.21 1.265-.42 2.503-.64 3.796h1.868c.104-.624.21-1.247.333-1.944h1.771c.079-.477.167-.944.245-1.421.035-.166.062-.33.088-.504l.631-3.714h1.771c.114-.66.21-1.256.307-1.852h1.841c-.21 1.228-.412 2.438-.622 3.695h1.78c.21-1.22.411-2.44.631-3.713h3.63c.219-1.284.428-2.522.639-3.769h-1.789zM52.507 20.507c0-.005.002-.009.003-.014h-.017c0 .005-.002.009-.003.014h.017zM55.493 30.492l-.002.015h.015l.003-.015h-.016z" transform="translate(50 167)"/>
                                <path d="M52.493 31.492l-.003.016h.017l.003-.016h-.017zM41.129 6h3.33l.306-2.052H43.1l.29-1.959h3.314L47 0h-6.702L40 2.005h1.722L41.129 6M39.51 1.492h-.017l-.003.016h.017c0-.006.002-.012.003-.016M58.346 28.342L58 30h4.01l.349-1.669h1.956l.359-1.717h1.988L67 25h-3.974l-.34 1.632h-2.03l-.356 1.71h-1.954z" transform="translate(50 167)"/>
                                <path d="M61.508 26.508l.002-.015h-.017l-.003.015h.017zM35.635 47L35 51h1.836l.305-1.92h1.776c-.1.639-.203 1.279-.305 1.92h1.753L41 47h-5.365zM40.493 50.492L40.49 50.508 40.507 50.508 40.51 50.492zM35.507 46.508l.003-.016h-.017l-.003.016h.017zM50.509 3.492L50.494 3.492 50.491 3.508 50.506 3.508z" transform="translate(50 167)"/>
                                <path d="M52.74 2.026h1.927L55 0h-5.665L49 2.042h1.91L50.588 4h1.828c.104-.634.208-1.27.325-1.974" transform="translate(50 167)"/>
                                <path d="M52.493 3.492l-.003.016h.017c0-.006.002-.011.003-.016h-.017zM9.493 26.492l-.002.016h.016l.002-.016h-.016zM8.505 22.506l.002.003.004-.018h-.018l-.004.018h.018s0-.002-.002-.003M8.494 27.493l-.003.014h.016l.002-.014h-.015z" transform="translate(50 167)"/>
                                <path d="M9.708 25.276L10 23.65H8.325L8.622 22H6.898L6 27h1.723l.31-1.724h1.675zM9.492 20.492l-.003.015H9.51c0-.006 0-.01.002-.015h-.018zM8.676 15L8 20h1.325L10 15H8.676zM29 56h5.677c.11-.344.217-.672.323-1h-5.677L29 56M29.494 53.491l-.005.018.003-.002-.003.002h.018l.003-.018h-.017zM34.49 53.508L34.507 53.508 34.51 53.492 34.493 53.492zM42.481 15L43 11h-1.481L41 15h1.481z" transform="translate(50 167)"/>
                                <path d="M41.507 11.507l.002-.014h-.015l-.003.014h.016zM46.492 13.492l-.002.016h.017l.004-.016h-.019z" transform="translate(50 167)"/>
                                <path d="M45.528 10L45 14h1.472L47 10h-1.472zM64.299 30L64 31h1.701L66 30h-1.701zM61.298 45L61 46h1.701L63 45h-1.702zM35 54h1.7l.3-2h-1.7l-.3 2" transform="translate(50 167)"/>
                                <path d="M36.49 52.508h.017l.004-.016h-.019l-.002.016M66.51 19.491h-.017l.008.01-.008-.01-.003.018h.016l.004-.018M68 16h-1.698L66 18h1.698L68 16M64.697 41L65 39h-1.697c-.1.667-.202 1.333-.303 2h1.697zM21.705 62L22 60h-1.705L20 62h1.705z" transform="translate(50 167)"/>
                                <path d="M20.509 60.508l.002-.016-.02.001-.002.015h.02zM25.493 60.507h.012l.002-.014h-.011l-.003.014M27.708 61L28 60h-1.707c-.098.33-.194.66-.293 1h1.708zM31.492 60.492l-.003.017.013-.01-.013.01h.019l.003-.017h-.019zM30.284 58L30 59h1.717L32 58h-1.716zM15 62h1.687L17 60h-1.688L15 62M62.492 41.508h.015l.002-.016h-.014c-.002.005-.002.011-.003.016M60 42h1.7l.3-1h-1.7l-.3 1M39 16h1.7l.3-1h-1.7l-.3 1M39.51 16.492h-.017l-.003.016h.017c0-.006.002-.011.003-.016M41.491 15.508h.015l.003-.016h-.015l-.003.016M62.7 38l.3-1h-1.7l-.3 1h1.7zM62.504 39.496l-.014.012h.017c0-.006.002-.01.003-.017h-.017c0 .007-.002.011-.003.017l.014-.012" transform="translate(50 167)"/>
                                <path d="M61.507 37.508l.002-.016h-.015l-.003.016h.016zM25.688 59L26 57h-1.688L24 59h1.688" transform="translate(50 167)"/>
                                <path d="M24.51 57.491l-.02.018h.016l.003-.018zM54.507 1.508c0-.006.002-.01.003-.016h-.017l-.003.016h.017zM55.697 4L56 3h-1.697L54 4h1.697zM36.506 50.508l.003-.016h-.016l-.002.016h.015zM36 52h1.7l.3-1h-1.7l-.3 1M39.491 50.508h.016l.002-.016h-.015l-.003.016M42 22h-1.71L40 23h1.71c.1-.35.195-.675.29-1M27 0h-1.71L25 1h1.71c.1-.35.195-.675.29-1M31.513 52h1.855L34 48h-3.685L30 49.996h1.829L31.513 52M29.51 50.492h-.017l.007.007-.006-.008c-.002.005-.003.011-.003.017h.015l.003-.017M32.49 32l.51-4h-1.49c-.08.642-.429 3.364-.51 4h1.49zM19 4h-5.101L13 10h5.101L19 4M5 58h5.1l.9-6H5.899L5 58M67 4h-5.1l-.9 6h5.1c.3-2.01.599-3.998.9-6" transform="translate(50 167)"/>
                                <path d="M59.986 35.638h-1.789c.107-.618.213-1.245.329-1.872h1.78c-.107.627-.213 1.236-.32 1.872zm-2.99-3.716h1.868c-.116.608-.24 1.217-.356 1.826-.605.009-1.202.009-1.834.009.107-.627.205-1.208.322-1.835zm-.098 11.167c-.108.655-.215 1.263-.33 1.909h-3.65c.107-.618.214-1.236.321-1.873h-3.668c-.107.61-.213 1.227-.33 1.891h-1.814l.329-1.908h-3.668c.214-1.272.427-2.49.65-3.762h1.772c-.108.627-.223 1.263-.33 1.89h1.896l.33-1.89h1.789c-.108.627-.223 1.263-.33 1.926h5.483c-.107.59-.205 1.18-.32 1.817h1.87zm.497 7.506h-1.744c.214-1.227.427-2.453.65-3.725h1.735c-.213 1.236-.426 2.462-.641 3.725zm-3.987 1.845h-5.44c.321-1.836.642-3.671.963-5.543h5.429c-.32 1.863-.64 3.689-.952 5.543zm-6.64-3.68h-1.852c.213-1.228.427-2.454.641-3.726h1.85c-.203 1.226-.417 2.462-.64 3.726zm-3.792-20.655c.106-.627.213-1.254.329-1.88h1.788c-.105.617-.213 1.235-.328 1.88h-1.79zm3.346 1.881c-.106.636-.213 1.272-.329 1.909h-1.851c.116-.627.222-1.245.338-1.909h1.842zm-5.839 1.881H38.64c.108-.609.215-1.226.32-1.881h-1.805c.106-.627.213-1.227.32-1.826h3.649c-.213 1.226-.418 2.453-.64 3.707zm-8.651 7.452h-3.615c.107-.628.205-1.218.312-1.79h-1.834c.108-.619.214-1.237.32-1.855h5.448c-.213 1.218-.418 2.417-.631 3.645zm-.66 3.77h-1.85c.106-.59.204-1.18.31-1.799h1.852c-.098.582-.196 1.163-.312 1.8zm-2.189 1.918h-1.798c-.108.644-.213 1.253-.311 1.853h-1.79c.436-2.535.863-5.034 1.3-7.533h1.824c-.213 1.255-.426 2.481-.649 3.78h1.753c-.116.618-.222 1.237-.329 1.9zm-4.504-5.653h-1.807c-.116.655-.223 1.264-.33 1.918h-1.877c-.116.646-.214 1.236-.32 1.826-1.221 0-2.431.01-3.65.02.097-.62.195-1.237.293-1.846h1.852c.222-1.3.436-2.526.65-3.78h-3.65l.32-1.818h1.762c.116-.681.223-1.3.33-1.944H16.29c.106-.609.213-1.218.32-1.818h7.344c-.214 1.236-.428 2.463-.65 3.753h1.807c-.205 1.218-.418 2.426-.632 3.69zM23.16 46.86H21.4c.098-.59.196-1.181.312-1.817h-1.887l.329-1.935h3.65c-.215 1.272-.428 2.498-.642 3.752zm-3.097 7.542H18.23c.107-.663.214-1.272.329-1.917h1.834c-.107.636-.213 1.272-.33 1.917zm-3.917-9.404h-1.79l.33-1.873h1.79c-.108.62-.214 1.236-.33 1.873zm-1.985-9.341c.107-.637.215-1.273.33-1.909h1.789c-.116.636-.223 1.272-.338 1.909h-1.781zm-.33 1.844h-1.85c.097-.61.205-1.19.311-1.836h1.852c-.108.618-.214 1.227-.312 1.836zm5.19-9.332c-.098.59-.196 1.163-.302 1.781h-1.798c.107-.582.204-1.172.311-1.781h1.789zm-5.108-1.99c.105-.6.213-1.2.32-1.808h5.438c-.098.618-.204 1.19-.311 1.807h-5.447zm4.664-5.58h3.64c-.116.682-.223 1.318-.338 1.945h-3.641c.116-.663.231-1.308.339-1.945zm4.78 3.79h-1.781c.116-.636.214-1.236.32-1.836h1.781l-.32 1.836zm1.895.018c-.098.59-.196 1.172-.311 1.8h1.788c-.115.654-.213 1.253-.328 1.907H24.63c-.107.637-.205 1.228-.311 1.836H20.66c.205-1.218.419-2.454.641-3.716h1.754c.106-.628.213-1.228.31-1.827h1.888zm-14.811 11.25h-1.86c.115-.637.23-1.273.338-1.909h1.851c-.116.636-.222 1.245-.33 1.909zM7.148 33.73c.098-.59.205-1.181.312-1.8h1.762c-.106.6-.204 1.2-.312 1.8H7.148zm27.95-13.112h1.79c-.116.645-.223 1.281-.33 1.917h-1.79c.107-.636.223-1.272.33-1.917zm1.638-9.342h1.753l-.32 1.826h-1.754c.108-.635.214-1.216.32-1.826zm2.44-3.762h1.886c-.107.618-.214 1.236-.33 1.882h-1.877c.106-.627.213-1.236.32-1.882zm-8.27 5.57h-1.878c.106-.59.204-1.18.31-1.799h1.88c-.108.6-.215 1.2-.313 1.8zm-2.226 1.927h-1.798c.116-.654.223-1.28.33-1.917h-1.843c.205-1.227.418-2.417.632-3.69h1.852c.115-.635.23-1.272.337-1.907h1.79c-.107.617-.214 1.235-.329 1.926h-1.79c-.213 1.218-.419 2.444-.632 3.662.596 0 1.193.009 1.79.009-.117.636-.223 1.281-.339 1.917zm-2.03-9.35h1.852l-.32 1.826H26.33c.107-.608.214-1.19.32-1.826zm6.214-3.744h1.753c-.098.6-.204 1.173-.302 1.781h-1.763c.107-.59.205-1.172.312-1.78zM62.22 33.721c.107-.627.205-1.2.311-1.809h-3.649c.098-.644.196-1.29.303-1.926h-1.86l.328-1.926h-1.815c-.027.173-.053.336-.089.5-.08.49-.16.953-.24 1.408v.018c-.107.618-.214 1.236-.33 1.926h-1.807c-.098.591-.196 1.182-.311 1.818h1.78c-.223 1.263-.427 2.48-.65 3.753h1.807c-.107.645-.213 1.253-.32 1.853h-5.466c.205-1.217.419-2.426.623-3.644h-1.807c-.213 1.237-.426 2.436-.632 3.644h-1.87c.322-1.862.642-3.725.963-5.588h1.851c.222-1.29.427-2.517.65-3.78h-3.65c.214-1.227.427-2.462.65-3.762h-1.887c.107-.6.205-1.2.312-1.8h-1.817c-.106.619-.204 1.21-.302 1.8-1.825.01-3.658.01-5.484.018-.115.637-.23 1.282-.355 1.917h-1.861c-.213 1.254-.427 2.49-.65 3.754h-1.788c-.108.617-.205 1.199-.32 1.853-1.862 0-3.686-.018-5.502-.018-.116.645-.214 1.29-.329 1.927h-1.878c.106-.619.214-1.237.329-1.927h1.878c.321-1.835.632-3.68.962-5.57h3.578l.33-1.954h5.598c.106-.59.204-1.172.32-1.817h-1.878c.116-.645.214-1.245.321-1.845h1.842c.116-.672.223-1.29.339-1.935h-1.852c.107-.591.205-1.181.32-1.818h1.87c.116-.672.222-1.299.338-1.935h-1.887c.214-1.263.427-2.499.64-3.744h1.88c.105-.627.203-1.209.32-1.863h1.815c.098-.6.205-1.2.32-1.853h1.87c.107-.655.214-1.264.32-1.89H41.07c.098-.619.187-1.227.285-1.845h-5.564c-.098.59-.196 1.18-.311 1.817h1.86c-.116.654-.222 1.263-.329 1.9h-3.65c.107-.6.214-1.218.33-1.9h-3.695c.108-.6.206-1.208.312-1.817 1.824-.009 3.65-.009 5.475-.018.106-.619.213-1.237.329-1.9h3.685c.116-.645.222-1.244.32-1.844h-3.685c.116-.681.223-1.28.33-1.899H29.49c-.223 1.254-.427 2.49-.64 3.725h1.78c-.107.664-.223 1.29-.33 1.918h-1.79l.322-1.908H25.19c-.66 3.789-1.3 7.524-1.958 11.303h1.771c-.222 1.272-.427 2.499-.64 3.735h1.886c-.116.636-.213 1.236-.32 1.836h1.798c.329-1.88.65-3.735.97-5.59h1.878c.125-.68.231-1.307.339-1.925h1.78c.116-.618.214-1.208.32-1.818h1.771c-.213 1.227-.418 2.454-.64 3.735H32.4c-.106.627-.214 1.2-.32 1.826h1.762c-.116.655-.222 1.264-.33 1.918h1.897c-.116.654-.214 1.254-.32 1.854h-1.852c-.116.681-.224 1.29-.33 1.935h1.843c-.098.59-.205 1.181-.312 1.808h-3.667c.32-1.844.641-3.68.962-5.542h-1.808c-.213 1.226-.427 2.453-.64 3.706h-3.694l.32-1.898h-1.887c.115-.627.213-1.237.32-1.836H18.88c-.106.627-.204 1.217-.312 1.8-.604.017-1.21.027-1.815.045-.107.618-.214 1.235-.33 1.917h-1.887c-.106.609-.214 1.209-.32 1.817h-1.78c-.108.628-.206 1.209-.32 1.863h-1.897c-.116.637-.222 1.272-.33 1.909h3.685c-.115.635-.213 1.235-.32 1.835h3.65c-.098.636-.205 1.281-.312 1.927h-1.797c-.108.654-.215 1.244-.313 1.835h-1.887c.214-1.263.428-2.508.65-3.744H9.552c.117-.636.215-1.235.321-1.845h-1.79c-.097.61-.204 1.21-.32 1.863h-1.86c-.33 1.908-.65 3.762-.98 5.661h3.65c-.107.609-.213 1.21-.32 1.854h-3.64L3 46.842h1.86c.32-1.871.642-3.707.962-5.589h3.667c.107-.617.214-1.235.33-1.88h1.815c-.116.627-.223 1.254-.329 1.88h1.878c.214-1.244.437-2.498.659-3.743h1.79c-.108.6-.215 1.2-.321 1.844h1.797l-.329 1.9c-1.193.009-2.395.009-3.587.018-.214 1.226-.427 2.462-.65 3.726h-1.895c.213-1.246.427-2.49.649-3.726H9.507c-.222 1.246-.436 2.48-.659 3.771h-1.87l-.31 1.827h11.046c-.116.654-.223 1.272-.338 1.916h1.79v.01h.008c-.107.6-.205 1.209-.321 1.853h-1.78l-1.3 7.515h3.667c-.106.627-.204 1.2-.31 1.836h1.761c.108-.61.206-1.218.32-1.872h3.722c.106-.627.214-1.253.329-1.918h1.808c.105-.617.203-1.207.32-1.826h1.87c.213-1.254.426-2.499.649-3.744h-1.88c-.106.6-.204 1.181-.31 1.808H25.92c-.107.655-.214 1.273-.33 1.927h-1.798c-.107.628-.213 1.208-.31 1.827H19.77c.098-.592.205-1.191.303-1.79h1.772l.658-3.772h-1.762c.115-.645.213-1.245.32-1.844h3.694c-.116.627-.214 1.217-.312 1.799h1.79c.222-1.263.436-2.499.649-3.725 3.053 0 6.107-.01 9.16-.01.098-.59.204-1.181.311-1.826h-3.658c.116-.654.221-1.263.329-1.917h3.649c.107-.627.214-1.209.321-1.836h1.878c.108-.654.213-1.263.33-1.935h-3.641c.106-.591.205-1.182.32-1.827h3.64c.108-.627.206-1.199.313-1.835h-1.826c.108-.664.214-1.264.33-1.909h3.64c-.106.6-.213 1.218-.32 1.872h1.771l-.31 1.836h-1.737c-.107.627-.205 1.208-.32 1.853h1.744c-.106.654-.213 1.263-.329 1.917h-1.753c-.107.628-.205 1.21-.32 1.836h1.762c-.116.655-.223 1.263-.33 1.918h1.906c-.33 1.899-.65 3.762-.97 5.615h1.815c-.107.655-.214 1.236-.32 1.863h1.878c-.223 1.254-.437 2.49-.65 3.735h3.667c.106-.591.204-1.181.311-1.8h3.614c-.106.6-.204 1.2-.31 1.8h1.904c.107-.645.213-1.227.32-1.854h1.79c.114-.645.222-1.263.33-1.918h1.876c.108-.617.214-1.207.32-1.844h1.772c.108-.627.206-1.199.312-1.826h-1.78c.329-1.927.659-3.799.979-5.67h-1.87c.108-.618.214-1.2.322-1.855h-3.694c.115-.635.221-1.27.329-1.907h3.667c.106-.61.204-1.2.321-1.854h1.895c.107-.6.205-1.2.32-1.845h1.781c.116-.663.214-1.263.329-1.926h-1.78zM47.7 62l.3-2.063h-1.695c.099-.672.19-1.307.282-1.937h-1.646l-.289 1.973h-3.357L41 62h6.7zM51.491 57.509h.015l.003-.018-.018.018M59.946 54.065H58.29L58 56h3.398L62 52h-1.743c-.105.688-.204 1.352-.311 2.065M51.491 57.508l.018-.017h-.015l-.003.017" transform="translate(50 167)"/>
                                <path d="M48.34 56L48 58h3.65l.35-2h-3.66zM52.49 56.508h.017l.003-.016h-.017l-.003.016" transform="translate(50 167)"/>
                                <path d="M49.494 56.492l-.003.016h.015l.003-.016h-.015zM50 62h1.687L52 60h-1.688L50 62" transform="translate(50 167)"/>
                                <path d="M58.826 59.992h-2.02l.326-1.906L57.49 56h-1.985l-.357 2.086H51.32L51 59.992h3.87L54.526 62h5.797c.114-.66.221-1.287.335-1.958l.01-.05.332-1.946h-1.841l-.333 1.946M51.491 60.508h.015l-.004-.006.004.006.003-.016h-.016l-.002.016M50 49h1.7l.3-1h-1.699L50 49" transform="translate(50 167)"/>
                            </g>
                        </g>
                    </g>
                    <path fill="#B9D6FE" d="M247 6h-55.635c-1.38 4.948 1.277 10.149 5.934 11.615.811.256 1.653.385 2.5.385h34.797c5.372 0 10.105-3.754 11.63-9.227L247 6z" transform="translate(-85 -59) translate(86 59)"/>
                    <g transform="translate(-85 -59) translate(86 59) translate(162 176)">
                        <mask id="njx3r7xuql" fill="#fff">
                            <use xlink:href="#01okv5h83j"/>
                        </mask>
                        <path fill="url(#dsv7fedonk)" d="M0.941 0.375L0.04 39.718 31.302 39.718 32.667 0.375z" mask="url(#njx3r7xuql)"/>
                    </g>
                    <g>
                        <path fill="#3A4A68" d="M23.97 9.359L27.809 46.569 22.641 49.711z" transform="translate(-85 -59) translate(86 59) translate(171 167)"/>
                        <path stroke="#182545" stroke-width=".99" d="M22.641 49.71L23.97 9.36m-7.788 5.614h0V8.348c0-4.56-3.561-8.255-7.954-8.255S.273 3.789.273 8.348v6.625" transform="translate(-85 -59) translate(86 59) translate(171 167)"/>
                    </g>
                    <g transform="translate(-85 -59) translate(86 59) translate(114 159)">
                        <mask id="ykda86a0oo" fill="#fff">
                            <use xlink:href="#0oc4yim2dm"/>
                        </mask>
                        <path fill="url(#jyar6z9q5n)" d="M1.429 0.278L0.171 56.794 43.795 56.794 45.7 0.278z" mask="url(#ykda86a0oo)"/>
                    </g>
                    <g>
                        <path fill="#26334A" d="M33.764 13.593L39.231 66.592 31.871 71.067z" transform="translate(-85 -59) translate(86 59) translate(126 145)"/>
                        <path stroke="#182545" stroke-width=".99" d="M.016 21.59v-9.485C.016 5.638 5.088.395 11.344.395c6.256 0 11.328 5.243 11.328 11.71v9.485" transform="translate(-85 -59) translate(86 59) translate(126 145)"/>
                        <path fill="#6C2929" d="M50.428 40.396L53.638 72.946 49.085 75.705z" transform="translate(-85 -59) translate(86 59) translate(126 145)"/>
                    </g>
                    <g transform="translate(-85 -59) translate(86 59) translate(146 185)">
                        <mask id="5rpw38lhar" fill="#fff">
                            <use xlink:href="#nlj2r8xhjp"/>
                        </mask>
                        <path fill="url(#rgdw2cf7oq)" d="M0.883 0.323L0.064 34.714 28.498 34.714 29.74 0.323z" mask="url(#5rpw38lhar)"/>
                    </g>
                    <g>
                        <path stroke="#182545" stroke-width=".99" d="M74.083 56.964l1.19-34.507m-7.064 4.781h0v-6.011c0-3.912-3.163-7.083-7.064-7.083-3.901 0-7.064 3.17-7.064 7.083v6.011" transform="translate(-85 -59) translate(86 59) translate(100 163)"/>
                        <path stroke="#0A1125" stroke-linecap="round" stroke-width="1.97" d="M126.994.635L115.19.148c-4.85-.2-9.087 3.26-9.874 8.062L92.96 83.558c-.763 4.655-4.776 8.07-9.48 8.07H21.485" transform="translate(-85 -59) translate(86 59) translate(100 163)"/>
                        <path stroke="#0A1125" stroke-width="1.97" d="M104.307 14.753H.417l15.887 47.901c1.987 5.99 7.576 10.033 13.873 10.033h64.446" transform="translate(-85 -59) translate(86 59) translate(100 163)"/>
                        <path stroke="#0A1125" stroke-linecap="round" stroke-width="1.97" d="M22.635 57.363L86.95 57.363" transform="translate(-85 -59) translate(86 59) translate(100 163)"/>
                        <path stroke="#0A1125" stroke-width="1.97" d="M9.686 42.704L99.899 42.704" transform="translate(-85 -59) translate(86 59) translate(100 163)"/>
                        <path stroke="#0A1125" stroke-linecap="round" stroke-width="1.97" d="M90.207 28.882L19.293 28.882" transform="translate(-85 -59) translate(86 59) translate(100 163)"/>
                        <path stroke="#0A1125" stroke-linecap="round" stroke-width="2.97" d="M74.221 91.918c4.96 0 8.981 4.032 8.981 9.005 0 4.974-4.02 9.005-8.98 9.005-4.96 0-8.981-4.031-8.981-9.005 0-4.973 4.02-9.005 8.98-9.005z" transform="translate(-85 -59) translate(86 59) translate(100 163)"/>
                        <path fill="#0A1125" d="M74.43 96.525c2.538 0 4.595 2.063 4.595 4.608 0 2.544-2.057 4.607-4.595 4.607-2.537 0-4.595-2.063-4.595-4.607 0-2.545 2.058-4.608 4.595-4.608" transform="translate(-85 -59) translate(86 59) translate(100 163)"/>
                        <path stroke="#0A1125" stroke-linecap="round" stroke-width="2.97" d="M36.21 91.918c4.96 0 8.98 4.032 8.98 9.005 0 4.974-4.02 9.005-8.98 9.005-4.96 0-8.98-4.031-8.98-9.005 0-4.973 4.02-9.005 8.98-9.005z" transform="translate(-85 -59) translate(86 59) translate(100 163)"/>
                        <path fill="#0A1125" d="M36.419 96.525c2.537 0 4.595 2.063 4.595 4.608 0 2.544-2.058 4.607-4.595 4.607-2.538 0-4.595-2.063-4.595-4.607 0-2.545 2.057-4.608 4.595-4.608" transform="translate(-85 -59) translate(86 59) translate(100 163)"/>
                    </g>
                    <path fill="url(#8z01wo84ns)" d="M132 115L231 115 231 25 132 25z" transform="translate(-85 -59) translate(86 59)"/>
                    <g>
                        <path fill="#FFF" d="M92.352 35.1c-1.625 0-2.941 1.308-2.941 2.922s1.316 2.922 2.94 2.922c1.625 0 2.942-1.308 2.942-2.922S93.976 35.1 92.352 35.1M92.352 50.686c-1.625 0-2.941 1.308-2.941 2.922s1.316 2.922 2.94 2.922c1.625 0 2.942-1.308 2.942-2.922s-1.317-2.922-2.941-2.922M92.352 66.272c-1.625 0-2.941 1.31-2.941 2.923 0 1.614 1.316 2.922 2.94 2.922 1.625 0 2.942-1.308 2.942-2.922s-1.317-2.923-2.941-2.923" transform="translate(-85 -59) translate(86 59) translate(120 25)"/>
                        <path fill="#26AE88" d="M105.097.03H17.35c-3.249 0-5.883 2.616-5.883 5.845v14.612h99.512V5.875c0-3.229-2.633-5.846-5.882-5.846" transform="translate(-85 -59) translate(86 59) translate(120 25)"/>
                        <path stroke="#FFF" stroke-linecap="round" stroke-width="9.314" d="M79.606 37.778L31.159 37.778M79.606 53.365L31.159 53.365M79.606 68.951L31.159 68.951" transform="translate(-85 -59) translate(86 59) translate(120 25)"/>
                        <path fill="#FFF" d="M125.525 85.675H20.481c-1.934 0-3.501 1.558-3.501 3.48v30.268c0 1.922 1.567 3.48 3.501 3.48h105.044c1.934 0 3.502-1.558 3.502-3.48V89.155c0-1.922-1.568-3.48-3.502-3.48" transform="translate(-85 -59) translate(86 59) translate(120 25)"/>
                        <path stroke="#A5C1F3" stroke-width="1.188" d="M125.525 85.675H20.481c-1.934 0-3.501 1.558-3.501 3.48v30.268c0 1.922 1.567 3.48 3.501 3.48h105.044c1.934 0 3.502-1.558 3.502-3.48V89.155c0-1.922-1.568-3.48-3.502-3.48z" transform="translate(-85 -59) translate(86 59) translate(120 25)"/>
                        <path fill="#FF4129" d="M143.616 79.049c-1.263.894-2.236 1.34-2.918 1.34-.681 0-1.654-.446-2.917-1.34.895 1.24 1.342 2.207 1.342 2.899 0 .691-.447 1.658-1.342 2.9 1.213-.796 2.186-1.194 2.917-1.194.732 0 1.704.398 2.918 1.193-.84-1.287-1.26-2.254-1.26-2.9 0-.645.42-1.611 1.26-2.898" transform="translate(-85 -59) translate(86 59) translate(120 25)"/>
                        <path fill="#528DFF" d="M136.947 64.552c-.632.447-1.118.671-1.46.671-.34 0-.826-.224-1.458-.67.448.62.671 1.103.671 1.45 0 .345-.223.828-.671 1.449.607-.398 1.093-.597 1.459-.597.366 0 .852.199 1.459.597-.42-.644-.63-1.127-.63-1.45 0-.323.21-.806.63-1.45" transform="translate(-85 -59) translate(86 59) translate(120 25)"/>
                        <path fill="#FECC41" d="M125.692 69.108c-1.895 1.341-3.354 2.012-4.377 2.012-1.022 0-2.481-.67-4.377-2.012 1.343 1.862 2.014 3.312 2.014 4.35 0 1.037-.67 2.486-2.014 4.348 1.821-1.193 3.28-1.789 4.377-1.789 1.098 0 2.556.596 4.377 1.79-1.26-1.932-1.89-3.382-1.89-4.35 0-.968.63-2.418 1.89-4.349" transform="translate(-85 -59) translate(86 59) translate(120 25)"/>
                        <path fill="#528DFF" d="M108.743 95.07c-5.124 0-9.278 4.127-9.278 9.22 0 5.091 4.154 9.219 9.278 9.219 5.125 0 9.28-4.128 9.28-9.22 0-5.092-4.155-9.22-9.28-9.22" transform="translate(-85 -59) translate(86 59) translate(120 25)"/>
                        <g>
                            <path fill="#451D11" d="M7.949 5.84c.256-.061.454-.08.593-.054.304.054.462.166.86.21.298.035.578-.004.84-.116.238-.732.167-1.42-.213-2.065-.571-.968.038-2.182-1.263-2.835C7.484.403 6.45.292 5.664.65c-1.641.908-1.149 2.402-1.533 2.805-.385.403-.919.784-1.24 2.516.593-.021 1.022-.014 1.287.023.943.13 1.658.469 2.352.125.085-.414.04-.747-.136-1-.112-.16-.182-.292-.238-.376-.078-.117-.12-.194-.112-.589.008-.456.643.107 1.905 1.686" transform="translate(-85 -59) translate(86 59) translate(120 25) translate(101.053 96.224)"/>
                            <path fill="#76331F" d="M9.642 1.986c-.294-.544-.838-.734-1.632-.571.16.328.083.766-.227 1.315-.31.548-.824.938-1.54 1.167l.438 1.55-.018.98-1.972-.034-1.15-.114-1.5-.172.558-.878 1.35-1.941C4.283 1.532 4.813.578 5.54.425 6.268.272 7.003.235 7.746.311c1.01.328 1.577.659 1.7.991.124.332.19.56.196.684" transform="translate(-85 -59) translate(86 59) translate(120 25) translate(101.053 96.224)"/>
                            <path fill="#E6B28C" d="M5.486 3.634c-.022-.368.33-.513.575-.407.163.071.253.117.27.137.363.033.733-.09 1.11-.373.378-.283.594-.668.648-1.157l.115.01c.49.037.875.436.893.925.04 1.154.01 1.896-.094 2.224l-.031.096c-.165.495-.635.827-1.16.818l-.025 1.41c-.01.527-.446.946-.976.937-.533-.01-.958-.442-.956-.97L5.86 6.27c.122-.01.245-.026.37-.049.126-.024.22-.058.28-.102.071-.238.072-.45.002-.635-.085-.228-.282-.587-.59-1.078-.276-.27-.422-.526-.436-.771" transform="translate(-85 -59) translate(86 59) translate(120 25) translate(101.053 96.224)"/>
                            <path fill="#937158" d="M7.812 5.907c-.356-.026-.663-.178-.922-.456l.915 1.285.007-.829z" transform="translate(-85 -59) translate(86 59) translate(120 25) translate(101.053 96.224)"/>
                            <path fill="#FFF" d="M8.279 5.05l-.615-.065c.019.157.108.246.266.264.16.02.275-.047.349-.199" transform="translate(-85 -59) translate(86 59) translate(120 25) translate(101.053 96.224)"/>
                            <path fill="#112429" d="M7.737 3.318c-.233-.005-.425.18-.428.41-.005.232.18.422.413.426.233.005.425-.18.428-.41.005-.232-.18-.422-.413-.426M8.793 3.336c-.232-.004-.424.18-.428.41-.004.232.181.423.413.427.233.004.425-.18.429-.411.004-.231-.181-.422-.414-.426" transform="translate(-85 -59) translate(86 59) translate(120 25) translate(101.053 96.224)"/>
                            <path stroke="#937158" stroke-width=".55" d="M7.993 4.584c.236.069.371.049.405-.061.05-.165-.113-.335-.144-.465-.022-.087-.03-.205-.023-.354m-2.304.114l.316.15c.008-.244-.042-.417-.147-.517-.106-.1-.229-.121-.37-.063" transform="translate(-85 -59) translate(86 59) translate(120 25) translate(101.053 96.224)"/>
                            <path stroke="#451D11" stroke-width=".55" d="M9.046 3.172c-.222-.091-.413-.083-.573.025M7.47 3.159c.21-.096.413-.086.613.03" transform="translate(-85 -59) translate(86 59) translate(120 25) translate(101.053 96.224)"/>
                            <path stroke="#EFEFEF" stroke-width=".55" d="M5.608 3.816c-.232-.004-.424.18-.428.41-.004.232.181.422.413.426.233.005.425-.18.429-.41.004-.231-.181-.422-.414-.426zM8.787 3.273c-.243-.004-.444.188-.448.43-.004.242.19.44.432.445.243.004.444-.188.448-.43.004-.241-.19-.44-.432-.445zM8.288 3.836l.24.006-.24-.006zm-.01.063c.005-.35-.22-.638-.503-.644-.283-.006-.516.273-.522.622-.005.35.22.639.504.646.283.006.516-.273.521-.624z" transform="translate(-85 -59) translate(86 59) translate(120 25) translate(101.053 96.224)"/>
                            <path stroke="#EFEFEF" stroke-linecap="round" stroke-width=".55" d="M7.254 3.641L6.191 3.364" transform="translate(-85 -59) translate(86 59) translate(120 25) translate(101.053 96.224)"/>
                            <path fill="#CBDEFF" d="M10.534 13.256c.88-.411 1.158-1.14.835-2.188l4.08 2.08c.326-.451.584-.908.774-1.369.191-.461.39-1.111.598-1.95l-5.633-2.875c-.367-.187-.774-.286-1.186-.288-.418-.002-.835.037-1.244.117L2.945 7.914c-.509.1-.975.35-1.336.72-.36.37-.601.84-.69 1.348l-.655 3.742c.373.458.766.857 1.178 1.197.412.341 1.017.766 1.814 1.274l.525-2.94c.35.295.534.738.496 1.19l-.194 2.328c.852.41 2.02.614 3.505.614 1.484 0 2.594-.282 3.328-.846l-.382-3.285z" transform="translate(-85 -59) translate(86 59) translate(120 25) translate(101.053 96.224)"/>
                            <path fill="#E6B28C" d="M5.853 7.342l.26.676c.212.55.712.937 1.3 1.009.356.043.681-.21.725-.564.01-.082.005-.164-.016-.244l-.334-1.257-1.935.38z" transform="translate(-85 -59) translate(86 59) translate(120 25) translate(101.053 96.224)"/>
                            <path fill="#A3BEEF" d="M3.781 13.256l.321-1.069c.597 1.11 1.83 1.728 3.083 1.547l3.481-.504.375 3.453c-1.102.53-2.152.796-3.15.796-1.491 0-2.802-.185-3.93-.557.16-1.412.207-2.346.141-2.802-.066-.455-.173-.744-.32-.864M11.182 10.409L11.927 9.276 16.742 13.805 11.402 11.104z" transform="translate(-85 -59) translate(86 59) translate(120 25) translate(101.053 96.224)"/>
                            <path stroke="#31434D" stroke-width=".594" d="M18.411 9.09L16.914 10.569" transform="translate(-85 -59) translate(86 59) translate(120 25) translate(101.053 96.224)"/>
                            <path stroke="#31434D" stroke-width=".55" d="M4.18 11.804l-.634 2.179m6.335-.648c1.198.082 1.738-1.128 1.576-1.853-.109-.482-.2-.84-.275-1.073l.745-1.133" transform="translate(-85 -59) translate(86 59) translate(120 25) translate(101.053 96.224)"/>
                        </g>
                        <path fill="#FECC41" d="M87.559 106.923L90.647 108.536 90.057 105.12 92.554 102.701 89.103 102.203 87.559 99.095 86.016 102.203 82.565 102.701 85.062 105.12 84.472 108.536zM74.054 106.923L77.141 108.536 76.551 105.12 79.049 102.701 75.597 102.203 74.054 99.095 72.51 102.203 69.059 102.701 71.556 105.12 70.967 108.536zM60.548 106.923L63.635 108.536 63.046 105.12 65.543 102.701 62.092 102.203 60.548 99.095 59.004 102.203 55.553 102.701 58.05 105.12 57.461 108.536z" transform="translate(-85 -59) translate(86 59) translate(120 25)"/>
                        <path fill="#C9D4E8" d="M47.042 106.923L50.13 108.536 49.54 105.12 52.037 102.701 48.586 102.203 47.042 99.095 45.499 102.203 42.047 102.701 44.545 105.12 43.955 108.536zM33.537 106.923L36.624 108.536 36.034 105.12 38.532 102.701 35.08 102.203 33.537 99.095 31.993 102.203 28.542 102.701 31.039 105.12 30.449 108.536z" transform="translate(-85 -59) translate(86 59) translate(120 25)"/>
                        <path fill="#000" d="M10.354 5.828C4.737 5.828.183 10.352.183 15.934S4.737 26.04 10.353 26.04c5.618 0 10.172-4.524 10.172-10.106S15.97 5.828 10.354 5.828" transform="translate(-85 -59) translate(86 59) translate(120 25)"/>
                        <path fill="#FFF" d="M10.354 5.828C4.737 5.828.183 10.352.183 15.934S4.737 26.04 10.353 26.04c5.618 0 10.172-4.524 10.172-10.106S15.97 5.828 10.354 5.828" transform="translate(-85 -59) translate(86 59) translate(120 25)"/>
                    </g>
                    <g transform="translate(-85 -59) translate(86 59) translate(124 35)">
                        <mask id="20khdax8hv" fill="#fff">
                            <use xlink:href="#v1z5c3106t"/>
                        </mask>
                        <path fill="url(#n7sc5cgf5u)" d="M6.075 2.277C5.605 1.19 4.535.431 3.289.431 1.611.43.402 1.835.251 3.509c0 0-.082.415.098 1.163.246 1.019.824 1.924 1.603 2.614l4.123 3.6 4.053-3.6c.78-.69 1.357-1.595 1.603-2.614.18-.748.099-1.163.099-1.163C11.678 1.835 10.47.43 8.79.43c-1.245 0-2.246.76-2.715 1.846" mask="url(#20khdax8hv)"/>
                    </g>
                    <g>
                        <path fill="#000" d="M131.261.11c-5.638 0-10.208 4.558-10.208 10.182 0 5.624 4.57 10.183 10.208 10.183s10.21-4.56 10.21-10.183c0-5.624-4.572-10.182-10.21-10.182" transform="translate(-85 -59) translate(86 59) translate(0 57)"/>
                        <path fill="#FFF" d="M131.261.11c-5.638 0-10.208 4.558-10.208 10.182 0 5.624 4.57 10.183 10.208 10.183s10.21-4.56 10.21-10.183c0-5.624-4.572-10.182-10.21-10.182" transform="translate(-85 -59) translate(86 59) translate(0 57)"/>
                        <path fill="#528DFF" d="M126.606 7.645c.065-.079.163-.124.265-.124h8.396c.107 0 .209.05.274.134.065.086.087.196.06.3l-1.106 4.118c-.041.152-.178.256-.335.256l-.017-.001-6.598-.33c-.16-.009-.293-.125-.322-.283l-.692-3.787c-.019-.102.009-.205.075-.283" transform="translate(-85 -59) translate(86 59) translate(0 57)"/>
                        <path fill="#FFF" d="M132.765 10.608V9.22c0-.191.155-.346.344-.346.19 0 .345.155.345.346v1.388c0 .192-.154.347-.345.347-.19 0-.344-.155-.344-.347m-2.065 0V9.22c0-.191.154-.346.344-.346.19 0 .344.155.344.346v1.388c0 .192-.154.347-.344.347-.19 0-.344-.155-.344-.347m-2.066 0V9.22c0-.191.154-.346.344-.346.19 0 .345.155.345.346v1.388c0 .192-.155.347-.345.347-.19 0-.344-.155-.344-.347" transform="translate(-85 -59) translate(86 59) translate(0 57)"/>
                        <path fill="#528DFF" d="M133.122 14.395c-.573 0-1.038.463-1.038 1.034 0 .572.465 1.035 1.038 1.035.574 0 1.039-.463 1.039-1.035 0-.57-.465-1.034-1.039-1.034M128.969 14.395c-.573 0-1.038.463-1.038 1.034 0 .572.465 1.035 1.038 1.035.574 0 1.038-.463 1.038-1.035 0-.57-.464-1.034-1.038-1.034M128.277 13.705h5.537c.157 0 .294-.105.334-.255l1.78-6.641h1.347c.191 0 .346-.155.346-.345 0-.19-.155-.345-.346-.345h-1.613c-.157 0-.294.105-.334.256l-1.78 6.64h-5.271c-.191 0-.346.155-.346.346 0 .19.155.344.346.344" transform="translate(-85 -59) translate(86 59) translate(0 57)"/>
                        <path fill="#CC7C41" d="M123.822 49.365l.217-3.342c.213-3.267 1.463-6.381 3.569-8.892l2.361-2.816c1.36-1.622 2.414-3.477 3.109-5.475l1.03-2.962c.2-.58.65-1.04 1.226-1.254.272-.102.576.036.678.308.036.095.043.198.02.297l-1.156 5.212 2.374-4.545c.273-.523.795-.872 1.385-.926.316-.03.595.203.624.518.008.092-.006.186-.041.271l-2.829 6.814 3.19-4.88c.198-.303.603-.388.906-.19.022.013.043.029.063.046.332.278.43.746.238 1.134l-2.577 5.2 2.489-3.397c.212-.29.62-.353.91-.141.03.022.059.046.085.073.314.325.362.824.113 1.202l-1.815 2.763c-1.484 2.258-3.215 4.345-5.163 6.22l-1.426 1.374c-.97.935-1.577 2.184-1.71 3.524l-.365 3.662-7.505.202z" transform="translate(-85 -59) translate(86 59) translate(0 57)"/>
                        <path stroke="#753C12" stroke-width=".5" d="M132.334 38.695c-1.252-1.862-2.549-2.56-3.891-2.092 1.81 1.869 2.082 3.553.82 5.052" transform="translate(-85 -59) translate(86 59) translate(0 57)"/>
                        <path fill="#CC7C41" d="M128.15 36.594l-1.97-3.498c-.536-.95-1.742-1.288-2.695-.754-.058.032-.114.067-.168.105l.255.54c.873 1.853 1.21 3.911.969 5.944-.1.848.077 1.734.53 2.66l3.08-4.997z" transform="translate(-85 -59) translate(86 59) translate(0 57)"/>
                        <path stroke="#753C12" stroke-width=".5" d="M132.986 32.534c1.45.096 2.992.99 4.627 2.678m-.241-.249l1.715-2.215m-3.425 1.09l1.589-2.424m-3.328 1.113l1.313-2.669" transform="translate(-85 -59) translate(86 59) translate(0 57)"/>
                        <path fill="#000" d="M72.815 54.913l.62-3.277c.285-1.515-.453-3.038-1.822-3.756-1.431-.75-3.15-.71-4.545.105l-7.434 4.347-.427.028c-1.293.085-2.387.984-2.717 2.234-.347 1.312-.04 2.712.827 3.759l4.591 5.547 10.907-8.987z" transform="translate(-85 -59) translate(86 59) translate(0 57)"/>
                        <path fill="#CC7C41" d="M58.05 61.383c-.537-1.514.607-2.91 2.372-2.48l1.953.624.6-1.373c.151-.347.201-.73.144-1.104l-.357-2.305c2.38-.388 4.846-1.188 7.397-2.399.8-.38 1.756-.041 2.137.756.043.091.078.185.103.282 1.331 5.056 2.047 8.246 2.149 9.572.142 1.86-1.065 3.559-2.872 4.041l-.994.266 1.673 6.23c.625 2.326-.759 4.717-3.09 5.34-2.333.623-4.73-.757-5.355-3.083l-3.17-11.798c-1.436-.704-2.334-1.56-2.69-2.57" transform="translate(-85 -59) translate(86 59) translate(0 57)"/>
                        <path fill="#734422" d="M70.682 67.263c-3.45.33-5.919.045-7.405-.852l9.405 8.296-2-7.444z" transform="translate(-85 -59) translate(86 59) translate(0 57)"/>
                        <path fill="#162044" d="M67.244 58.123c-.321.086-.512.415-.425.735.085.32.415.51.736.424.321-.085.511-.414.425-.735-.086-.32-.416-.51-.736-.424M71.89 56.881c-.32.086-.51.415-.424.735.086.32.415.51.736.424.321-.086.511-.415.426-.734-.087-.32-.416-.51-.737-.425" transform="translate(-85 -59) translate(86 59) translate(0 57)"/>
                        <path stroke="#824B23" stroke-width=".949" d="M69.797 61.737c1.114-.026 1.682-.274 1.704-.744.035-.704-.866-1.164-1.15-1.63-.19-.31-.355-.76-.495-1.347m-10.209 3.458l1.553.185c-.238-.927-.644-1.519-1.219-1.776-.574-.257-.966-.091-1.176.497" transform="translate(-85 -59) translate(86 59) translate(0 57)"/>
                        <path stroke="#000" stroke-width=".949" d="M72.555 54.96c-1.09-.12-1.915.156-2.479.827M65.64 56.876c.792-.683 1.7-.894 2.722-.63" transform="translate(-85 -59) translate(86 59) translate(0 57)"/>
                        <path fill="#000" d="M62.03 58.157c.39 1.519.948 2.758 1.674 3.718 1.089 1.439 1.447 2.13 2.751 2.446 1.305.317 1.416-1.598 4.347-2.222 1.954-.417 3.166-.48 3.637-.192 2.207 3.74 2.22 6.454.036 8.142-2.083 1.61-5.718.485-10.904-3.374-.483-.358-.778-.914-.805-1.514l-.016-.362c-.037-.857-.24-1.7-.594-2.482l-1.65-3.635 1.524-.525z" transform="translate(-85 -59) translate(86 59) translate(0 57)"/>
                        <path fill="#FFF" d="M72.281 63.09l-2.776.48c.282.67.782.946 1.5.83.72-.116 1.144-.553 1.276-1.31" transform="translate(-85 -59) translate(86 59) translate(0 57)"/>
                        <path stroke="#000" stroke-width=".6" d="M60.56 58.71l5.027.317-5.027-.317zm8.446-1.632l.311 1.159c.172.64-.209 1.298-.85 1.47l-1.355.362c-.641.171-1.301-.21-1.473-.849l-.311-1.159 3.678-.983zm4.648-1.242l.31 1.16c.173.64-.208 1.297-.85 1.469l-1.354.361c-.642.172-1.301-.208-1.473-.848l-.312-1.159 3.679-.983zm-4.389 2.208l.775-.207-.775.207z" transform="translate(-85 -59) translate(86 59) translate(0 57)"/>
                        <path fill="#CC7C41" d="M40.733 160.796l6.378 1.88-2.911 13.367c-3.163-1.945-6.21-3.202-9.14-3.768l5.673-11.48z" transform="translate(-85 -59) translate(86 59) translate(0 57)"/>
                        <path fill="#0A1125" d="M41.83 161l-3.096 7.808c-.404 1.019-.546 2.123-.412 3.21l.09.724c.05.412-.244.787-.656.837-.056.007-.112.007-.168.002l-7.199-.729c-3.052-.308-6.125.347-8.783 1.874l-1.493.857c-1.708.981-3.166 2.343-4.259 3.978l-.375.561c-.744 1.114-2.183 1.535-3.413.999-.271.36-.774.45-1.154.206l-.1-.064c-.439-.281-.588-.85-.343-1.31 4.368-8.175 9.525-15.235 15.474-21.18l-.857-.643 5.273-6.98 1.51 1.135c1.545 1.162 2.923 2.53 4.094 4.065 1.165 1.528 2.627 2.805 4.298 3.757l1.57.893z" transform="translate(-85 -59) translate(86 59) translate(0 57)"/>
                        <g>
                            <path fill="#0D1018" d="M24.048 3.015c-2.658 3.561-5.139 6.429-7.442 8.601-3.455 3.26-10.657 12.61-13.415 19.442l-.106 1.42-2.778-1.825C6.372 20.157 11.259 13.177 14.969 9.71l.939-2.432L21.312.126l3.138 2.358-.402.531z" transform="translate(-85 -59) translate(86 59) translate(0 57) translate(8.875 150.062)"/>
                            <path stroke="#192C64" stroke-width=".891" d="M24.048 3.015c-2.658 3.561-5.139 6.429-7.442 8.601-3.455 3.26-10.657 12.61-13.415 19.442l-.106 1.42-2.778-1.825C6.372 20.157 11.259 13.177 14.969 9.71l.939-2.432L21.312.126l3.138 2.358-.402.531z" transform="translate(-85 -59) translate(86 59) translate(0 57) translate(8.875 150.062)"/>
                        </g>
                        <path fill="#CC7C41" d="M13 237.323l3.273-5.775 12.402 5.836c-2.612 2.636-4.524 5.314-5.737 8.034L13 237.323z" transform="translate(-85 -59) translate(86 59) translate(0 57)"/>
                        <path fill="#0A1125" d="M13.446 236.303l6.932 4.766c.904.622 1.95 1.007 3.043 1.122l.727.076c.414.044.714.413.67.825-.005.057-.018.111-.036.164l-2.33 6.832c-.989 2.897-1.04 6.03-.146 8.958l.501 1.643c.575 1.88 1.577 3.604 2.929 5.034l.463.49c.921.975 1.009 2.468.208 3.542.29.345.265.854-.058 1.168l-.085.083c-.373.363-.963.38-1.356.039-7.005-6.083-12.742-12.684-17.21-19.802l-.822.687-5.632-6.694 1.448-1.213c1.483-1.24 3.129-2.271 4.893-3.064 1.754-.788 3.33-1.922 4.635-3.332l1.226-1.324z" transform="translate(-85 -59) translate(86 59) translate(0 57)"/>
                        <g>
                            <path fill="#0D1018" d="M3.704.801c2.88 3.385 5.123 6.44 6.728 9.168 2.407 4.09 9.92 13.193 15.975 17.41l1.363.423-2.408 2.29c-8.889-8.256-14.609-14.575-17.16-18.961l-2.165-1.46-5.772-6.86L3.275.29l.429.51z" transform="translate(-85 -59) translate(86 59) translate(0 57) translate(0 242.376)"/>
                            <path stroke="#192C64" stroke-width=".891" d="M3.704.801c2.88 3.385 5.123 6.44 6.728 9.168 2.407 4.09 9.92 13.193 15.975 17.41l1.363.423-2.408 2.29c-8.889-8.256-14.609-14.575-17.16-18.961l-2.165-1.46-5.772-6.86L3.275.29l.429.51z" transform="translate(-85 -59) translate(86 59) translate(0 57) translate(0 242.376)"/>
                        </g>
                        <path fill="#282028" d="M77.087 165.045l-29.286-4.828c-1.786 2.212-3.225 4.852-4.315 7.92-1.09 3.069-1.578 6.02-1.463 8.853l28.771 6.997 6.293-18.942z" transform="translate(-85 -59) translate(86 59) translate(0 57)"/>
                        <path fill="#423542" d="M77.86 165.286l-7.066 18.701 31.34 5.01c6.915 1.106 13.419-3.59 14.527-10.487.096-.592.149-1.191.158-1.791.166-9.934-2.837-16.944-8.722-27.231-5.886-10.288-12.13-19.402-14.571-23.538-1.627-2.756-2.841-5.935-3.643-9.534-2.892 1.153-6.675 1.97-11.347 2.451-4.672.481-10.192.45-16.56-.09-3.077 3.48-4.92 7.362-5.526 11.646-.396 2.79-.334 5.52.185 8.193.663 3.422.596 6.943-.197 10.336l-4.83 20.664c-1.172 5.018-3.199 9.798-5.992 14.133l-30.755 47.735c1.984 2.739 4.265 4.824 6.845 6.254 2.579 1.43 5.322 2.58 8.227 3.446l40.861-57.197 11.505-30.443 8.195 14.751-12.633-3.009z" transform="translate(-85 -59) translate(86 59) translate(0 57)"/>
                        <path fill="#282028" d="M90.494 168.295l-12.608-3.015-7.092 18.707 24.144-.982c3.491-.141 6.206-3.08 6.063-6.561-.035-.863-.248-1.71-.624-2.487l-11.544-23.84c-.292-.602-.569-1.21-.832-1.824l-5.285-12.31-.417 17.561 8.195 14.75z" transform="translate(-85 -59) translate(86 59) translate(0 57)"/>
                        <path stroke="#FFF" stroke-width=".7" d="M69.894 120.363h0l-7.926 45.564c-1.06 6.089-3.363 11.895-6.767 17.059l-35.38 53.659m58.064-71.365l12.609 3.015-8.195-14.75m.417-17.562h0L88 148.293c.264.614.542 1.222.833 1.824l11.544 23.84c.376.777.589 1.624.624 2.487.142 3.482-2.572 6.42-6.063 6.561l-24.144.982" transform="translate(-85 -59) translate(86 59) translate(0 57)"/>
                    </g>
                    <g transform="translate(-85 -59) translate(86 59) translate(38 103)">
                        <mask id="4gh6gjak2y" fill="#fff">
                            <use xlink:href="#32q9lsrubw"/>
                        </mask>
                        <path fill="url(#ejokdn9lkx)" d="M84.084 1.09l-1.132 25.97-33.21-1.828c-.624-.034-1.25-.042-1.875-.023l-1.911.058c-1.896.057-3.78.301-5.627.73l-26.198 6.079c-2.292.532-4.367 1.752-5.944 3.495-1.58 1.746-2.603 3.924-2.939 6.252L.25 76.48c-.377 2.62.925 5.196 3.26 6.448 2.449 1.312 5.373 1.396 7.893.227l8.048-3.732-3.02-12.198-1.002.406 3.351-11.328c1.631 1.284 2.54 3.277 2.441 5.349l-.51 10.642c3.93 1.734 9.264 2.483 16 2.248 6.737-.235 11.726-1.697 14.968-4.386l1.182-25.032 38.394-2.907c1.843-.14 3.58-.918 4.91-2.2 1.293-1.248 1.914-3.037 1.672-4.816L93.069.12l-8.985.97z" mask="url(#4gh6gjak2y)"/>
                    </g>
                    <g>
                        <path fill="#CC7C41" d="M17.319 2.35l1.436 1.716c1.705 2.038 4.327 3.135 7.02 2.94 1.404-.103 2.457-1.295 2.352-2.662-.032-.416-.172-.818-.406-1.168L25.88.419l-8.56 1.932z" transform="translate(-85 -59) translate(86 59) translate(46 130)"/>
                        <path fill="#D35723" d="M10.861 28.877l1.294-4.834.884 1.133c7.654 9.811 19.003 16.256 31.543 17.912-4.953 2.548-9.708 3.9-14.265 4.054-6.815.232-12.831-.395-18.049-1.882.505-6.344.57-10.532.197-12.563-.373-2.03-.908-3.304-1.604-3.82" transform="translate(-85 -59) translate(86 59) translate(46 130)"/>
                        <path fill="#ED7D47" d="M45.886 9.723L82.939 15.306 45.174 17.905z" transform="translate(-85 -59) translate(86 59) translate(46 130)"/>
                        <path stroke="#9B2E00" stroke-width=".7" d="M75.086 5.484l.386-5.307M45.154 17.982l.745-8.772M12.446 22.32l-2.544 9.848" transform="translate(-85 -59) translate(86 59) translate(46 130)"/>
                        <path fill="#CC7C41" d="M29.784 34.409l4.755-6.482c.846-1.155 2.07-1.997 3.471-2.39l2.999-.838c.643-.18 1.324-.19 1.973-.029l3.619.898c.266.066.426.33.359.588-.026.098-.082.186-.162.25-.473.389-1.086.577-1.703.525l-2.954-.252c-.229-.02-.459.022-.665.121l-3.224 1.544 4.703-.802c.076-.012.152-.019.23-.018l4.866.047c.46.004.829.37.824.818 0 .02-.001.042-.003.062-.045.502-.46.898-.976.932l-4.288.284c-.141.01-.28.042-.41.096l-2.41 1.005 2.957-.254 3.92-.023c.392-.003.712.305.714.686 0 .022 0 .044-.002.065-.04.436-.396.782-.845.817l-3.639.291-3.333.958 2.932.012L45.81 33c.35-.047.686.156.796.484.104.309-.069.641-.387.743l-.006.001-2.882.887-3.32.573-.494.625c-1.135 1.432-2.538 2.64-4.137 3.563-1.573.907-3.398 1.311-5.22 1.156l-2.599-.221.52-5.778 1.703-.624z" transform="translate(-85 -59) translate(86 59) translate(46 130)"/>
                        <path stroke="#333" stroke-width=".7" d="M43.492 33.32l-3.893.086m3.638-2.876l-3.98.446m1.583-3.098l-4.68.879" transform="translate(-85 -59) translate(86 59) translate(46 130)"/>
                        <path fill="#F57242" d="M7.488 39.995l20.84-8.04c.965 1.821 1.643 3.5 2.031 5.039.39 1.538.88 3.507 1.472 5.905L6.189 53.893l1.299-13.898z" transform="translate(-85 -59) translate(86 59) translate(46 130)"/>
                        <path stroke="#9B2E00" stroke-width=".7" d="M7.488 39.995L0.272 43.767" transform="translate(-85 -59) translate(86 59) translate(46 130)"/>
                    </g>
                </g>
            </g>
        </g>
    </g>
</svg>
