<svg xmlns="http://www.w3.org/2000/svg" xmlns:xlink="http://www.w3.org/1999/xlink" width="1024" height="1014" viewBox="0 0 169 159">
    <defs>
        <path id="4r4tam7c6a" d="M0 0.053L126.949 0.053 126.949 127.302 0 127.302z"/>
    </defs>
    <g fill="none" fill-rule="evenodd">
        <g>
            <g>
                <g fill="#528AD7" fill-rule="nonzero">
                    <path d="M.395 59.669c-4.95 21.687 36.584 139.756 124.709 84.273C213.228 88.46 150.659-16.856 94.115 3.11 37.57 23.074 9.272 20.868.395 59.669z" transform="translate(-96 -160) translate(96 160)"/>
                </g>
                <g>
                    <g transform="translate(-96 -160) translate(96 160) translate(21 16)"/>
                    <path fill="#FFF" d="M16.599 78L10 73.094 23.731 52.779 10 52.779 11.001 46 36 46 35.461 49.806zM55.331 62.163L44.824 62.163 43.719 69.641 56.315 69.641 55.517 75 36 75 40.462 45 60 45 59.202 50.359 46.586 50.359 45.622 56.805 56.128 56.805zM69.22 59.362h4.479c1.444 0 2.634-.424 3.575-1.268.942-.844 1.507-1.904 1.7-3.183.19-1.373-.045-2.474-.696-3.305-.656-.834-1.738-1.247-3.252-1.247h-4.455l-1.351 9.003zm-.797 5.359L66.91 75H60l4.458-30h11.368c3.39 0 6.024.917 7.889 2.752 1.869 1.835 2.59 4.209 2.169 7.12-.466 3.062-1.852 5.47-4.162 7.222-2.31 1.751-5.251 2.627-8.823 2.627h-4.476zM103.115 37h7.578l.041.124-6.514 5.29h-5.957l-.042-.1L103.115 37zm3.216 25.32H95.824l-1.105 7.387h12.596L106.514 75H87l4.462-29.635H111l-.798 5.294H97.586l-.96 6.367h10.502l-.797 5.294z" transform="translate(-96 -160) translate(96 160) translate(21 16)"/>
                    <path fill="#FFF" d="M114.839 74s-14.183 10.488-23.724 14.884c-23.637 12.32-41.231 8.583-41.231 8.583-5.009-.83-12.537-4.008-17.142-6.2-9.17-4.738-16.366-11.24-22.715-19.014-.127-.15.23.125.367-.01.106-.104.26-.118.38-.06 4.42 2.286 4.885-1.8 9.01.605 4.024 3.865 12.2 9.98 16.407 11.789 8.465 3.267 14.71 5.676 23.991 5.344 9.205-.317 18.578-1.453 30.032-5.74 8.132-3.356 24.045-10.67 24.282-10.802.199-.089.394-.021.473.16.072.164.014.364-.13.46" transform="translate(-96 -160) translate(96 160) translate(21 16)"/>
                    <path fill="#FFF" d="M115.447 76c.117-.71.3-1.406.449-2.059.141-.653.253-1.301-.058-1.657-.158-.363-.885-.463-1.591-.494L112 71.709c.698-.31 1.425-.564 2.214-.66.718-.086 1.778-.16 2.5.718.515.88.233 1.757-.058 2.398-.307.676-.743 1.26-1.209 1.835" transform="translate(-96 -160) translate(96 160) translate(21 16)"/>
                </g>
            </g>
        </g>
    </g>
</svg>
