<?xml version="1.0" encoding="UTF-8"?>
<svg width="110px" height="110px" viewBox="0 0 110 110" version="1.1" xmlns="http://www.w3.org/2000/svg" xmlns:xlink="http://www.w3.org/1999/xlink">
    <title>BE56052C-FD58-47DB-B87A-23281B7344B2</title>
    <g id="Page-1" stroke="none" stroke-width="1" fill="none" fill-rule="evenodd">
        <g id="E00_RESTO-ATOS_MOBILE_APP" transform="translate(-20.000000, -120.000000)" fill="#000000" fill-rule="nonzero" stroke="#000000" stroke-width="0.4">
            <g id="Icon/User/User-profil" transform="translate(20.000000, 120.000000)">
                <g id="user(3)" transform="translate(22.000000, 22.000000)">
                    <path d="M66,33 C66,14.8044 51.1956,0 33,0 C14.8044,0 0,14.8044 0,33 C0,42.6108 4.1328,51.2736 10.7112,57.3096 L10.68,57.3372 L11.7504,58.2396 C11.82,58.2984 11.8956,58.3464 11.9652,58.404 C12.534,58.8756 13.1232,59.3232 13.7232,59.7564 C13.9176,59.8968 14.112,60.0372 14.31,60.174 C14.9508,60.6156 15.6084,61.0344 16.2804,61.4316 C16.4268,61.518 16.5744,61.602 16.722,61.686 C17.4576,62.1048 18.2088,62.4996 18.978,62.862 C19.0344,62.8884 19.092,62.9124 19.1484,62.9388 C21.6552,64.104 24.3312,64.9596 27.1296,65.4648 C27.2028,65.478 27.276,65.4912 27.3504,65.5044 C28.2192,65.6544 29.0976,65.7744 29.9868,65.8548 C30.0948,65.8644 30.2028,65.8704 30.312,65.88 C31.1976,65.9532 32.0928,66 33,66 C33.8988,66 34.7856,65.9532 35.6664,65.8824 C35.778,65.8728 35.8896,65.8668 36.0012,65.8572 C36.8832,65.7768 37.7544,65.6604 38.6148,65.5128 C38.6892,65.4996 38.7648,65.4864 38.8392,65.472 C41.5956,64.9776 44.2332,64.1412 46.7076,63.006 C46.7988,62.964 46.8912,62.9244 46.9824,62.8812 C47.7228,62.5332 48.4464,62.1576 49.1556,61.758 C49.332,61.6584 49.5072,61.5576 49.6824,61.4544 C50.328,61.074 50.9628,60.6768 51.5796,60.2544 C51.8016,60.1032 52.0188,59.9436 52.2384,59.7852 C52.7652,59.406 53.2824,59.0148 53.7852,58.6056 C53.8968,58.5156 54.0168,58.4376 54.126,58.3452 L55.224,57.4284 L55.1916,57.4008 C61.8276,51.3624 66,42.66 66,33 Z M2.4,33 C2.4,16.1268 16.1268,2.4 33,2.4 C49.8732,2.4 63.6,16.1268 63.6,33 C63.6,42.0924 59.61,50.2668 53.2932,55.8756 C52.9404,55.632 52.5852,55.4136 52.2216,55.2312 L42.0612,50.1516 C41.1492,49.6956 40.5828,48.7788 40.5828,47.76 L40.5828,44.2116 C40.818,43.9212 41.0664,43.5924 41.3232,43.2312 C42.6384,41.3736 43.6932,39.3072 44.4624,37.0836 C45.9828,36.3612 46.9644,34.8468 46.9644,33.1368 L46.9644,28.8828 C46.9644,27.8424 46.5828,26.8332 45.9,26.04 L45.9,20.4396 C45.9624,19.8168 46.1832,16.302 43.6404,13.4028 C41.4288,10.878 37.8492,9.6 33,9.6 C28.1508,9.6 24.5712,10.878 22.3596,13.4016 C19.8168,16.3008 20.0376,19.8156 20.1,20.4384 L20.1,26.0388 C19.4184,26.832 19.0356,27.8412 19.0356,28.8816 L19.0356,33.1356 C19.0356,34.4568 19.6284,35.6892 20.6436,36.5208 C21.6156,40.3284 23.616,43.2108 24.3552,44.1876 L24.3552,47.6604 C24.3552,48.6396 23.8212,49.5396 22.9608,50.01 L13.4724,55.1856 C13.17,55.35 12.87,55.542 12.57,55.7568 C6.3312,50.1504 2.4,42.0264 2.4,33 Z M50.9508,57.7584 C50.5308,58.0632 50.1036,58.3584 49.6704,58.6404 C49.4712,58.77 49.2732,58.8996 49.0704,59.0256 C48.504,59.376 47.928,59.7096 47.34,60.0216 C47.2104,60.09 47.0796,60.1548 46.9488,60.222 C45.5976,60.9144 44.1996,61.5096 42.7632,61.9932 C42.7128,62.01 42.6624,62.028 42.6108,62.0448 C41.8584,62.2944 41.0964,62.5164 40.326,62.7072 C40.3236,62.7072 40.3212,62.7084 40.3188,62.7084 C39.5412,62.9004 38.754,63.06 37.962,63.1908 C37.9404,63.1944 37.9188,63.1992 37.8972,63.2028 C37.152,63.324 36.4008,63.4116 35.6472,63.4776 C35.514,63.4896 35.3808,63.498 35.2464,63.5076 C34.5012,63.564 33.7524,63.6 33,63.6 C32.2392,63.6 31.4808,63.5628 30.726,63.5064 C30.5952,63.4968 30.4644,63.4884 30.3348,63.4764 C29.574,63.4092 28.8168,63.3192 28.0668,63.1968 C28.0332,63.1908 27.9996,63.1848 27.966,63.1788 C26.3796,62.9136 24.8184,62.5236 23.298,62.0136 C23.2512,61.998 23.2032,61.9812 23.1564,61.9656 C22.4016,61.7088 21.6552,61.4244 20.922,61.11 C20.9172,61.1076 20.9112,61.1052 20.9064,61.1028 C20.2128,60.804 19.5324,60.4728 18.8604,60.1236 C18.7728,60.078 18.684,60.0348 18.5976,59.988 C17.9844,59.6604 17.3844,59.3064 16.7928,58.9368 C16.6176,58.8264 16.4436,58.7148 16.2708,58.602 C15.726,58.2456 15.1884,57.8748 14.6652,57.4824 C14.6112,57.4416 14.5596,57.3984 14.5056,57.3576 C14.544,57.336 14.5824,57.3144 14.6208,57.2928 L24.1092,52.1172 C25.7412,51.2268 26.7552,49.5192 26.7552,47.6604 L26.754,43.338 L26.478,43.0044 C26.4516,42.9744 23.8572,39.8184 22.8768,35.5452 L22.7676,35.07 L22.3584,34.8048 C21.7812,34.4316 21.4356,33.8076 21.4356,33.1344 L21.4356,28.8804 C21.4356,28.3224 21.672,27.8028 22.104,27.4128 L22.5,27.0552 L22.5,20.3712 L22.4892,20.214 C22.4856,20.1852 22.1316,17.2992 24.1644,14.982 C25.8996,13.0044 28.8732,12 33,12 C37.1112,12 40.0752,12.996 41.8152,14.9592 C43.8456,17.2524 43.5132,20.1924 43.5108,20.2164 L43.5,27.0576 L43.896,27.4152 C44.3268,27.804 44.5644,28.3248 44.5644,28.8828 L44.5644,33.1368 C44.5644,33.9924 43.9824,34.7688 43.1472,35.0268 L42.5508,35.2104 L42.3588,35.8044 C41.6508,38.004 40.6428,40.0356 39.3636,41.8428 C39.0492,42.2868 38.7432,42.6804 38.4804,42.9816 L38.1828,43.3212 L38.1828,47.76 C38.1828,49.6944 39.258,51.4344 40.9884,52.2984 L51.1488,57.378 C51.2136,57.4104 51.2772,57.444 51.3408,57.4776 C51.2124,57.5748 51.0804,57.6648 50.9508,57.7584 Z" id="Shape"></path>
                </g>
            </g>
        </g>
    </g>
</svg>