<?xml version="1.0" encoding="UTF-8"?>
<svg width="30px" height="30px" viewBox="0 0 30 30" version="1.1" xmlns="http://www.w3.org/2000/svg" xmlns:xlink="http://www.w3.org/1999/xlink">
    <title>2FF3F078-B5B6-48BE-8F76-E0697243D526</title>
    <g id="Page-1" stroke="none" stroke-width="1" fill="none" fill-rule="evenodd">
        <g id="E00_RESTO-ATOS_MOBILE_APP" transform="translate(-260.000000, -30.000000)" fill="#075F9E" fill-rule="nonzero">
            <g id="Icon/Alert-Copy-2" transform="translate(260.000000, 30.000000)">
                <g id="alarm" transform="translate(7.200000, 6.000000)">
                    <path d="M15.8321455,14.8225091 C14.3070545,13.3069091 13.5340364,11.5131273 13.5340364,9.49090909 L13.5340364,6.54741818 C13.5481091,4.30330909 12.0390545,2.81487273 10.7424,2.22218182 C10.3709455,2.05232727 9.98803636,1.92141818 9.59890909,1.82421818 L9.59890909,1.63636364 C9.59890909,0.734072727 8.86483636,0 7.96254545,0 C7.06025455,0 6.32618182,0.734072727 6.32618182,1.63636364 L6.32618182,1.85269091 C5.97567273,1.94727273 5.63105455,2.07065455 5.29658182,2.22512727 C3.86345455,2.88556364 2.41167273,4.47741818 2.39858182,6.54545455 L2.39858182,9.49090909 C2.39858182,11.5815273 1.66025455,13.3753091 0.204218182,14.8225091 C0.117490909,14.9089091 0.0860727273,15.0362182 0.122727273,15.1530545 C0.159381818,15.2698909 0.258545455,15.3562909 0.379309091,15.3772364 L3.48545455,15.9136364 C4.06407273,16.0134545 4.59687273,16.0952727 5.10381818,16.1626909 C5.67523636,17.2819636 6.7968,18 8.02210909,18 C9.24774545,18 10.3696364,17.2813091 10.9404,16.1613818 C11.4453818,16.0942909 11.9755636,16.0128 12.5509091,15.9133091 L15.6567273,15.3769091 C15.7774909,15.3562909 15.8763273,15.2695636 15.9133091,15.1527273 C15.9502909,15.0362182 15.9188727,14.9089091 15.8321455,14.8225091 Z M6.9804,1.63636364 C6.9804,1.09505455 7.42090909,0.654545455 7.96221818,0.654545455 C8.50352727,0.654545455 8.94403636,1.09505455 8.94403636,1.63636364 L8.94403636,1.69592727 C8.29178182,1.60232727 7.63003636,1.60625455 6.9804,1.71130909 L6.9804,1.63636364 Z M8.02210909,17.3454545 C7.19345455,17.3454545 6.41912727,16.9337455 5.922,16.2605455 C6.65345455,16.3358182 7.33614545,16.3737818 8.01850909,16.3737818 C8.70349091,16.3737818 9.38847273,16.3358182 10.1228727,16.2595636 C9.62541818,16.9334182 8.85076364,17.3454545 8.02210909,17.3454545 Z M12.4396364,15.2682545 C11.8116,15.3765818 11.2359273,15.4646182 10.692,15.534 C10.6913455,15.534 10.6906909,15.534 10.6900364,15.534 C10.4504727,15.5644364 10.2174545,15.5909455 9.98934545,15.6138545 C9.98705455,15.6141818 9.98443636,15.6141818 9.98214545,15.6145091 C9.77367273,15.6354545 9.56978182,15.6521455 9.36818182,15.6668727 C9.32989091,15.6698182 9.29192727,15.6721091 9.25363636,15.6747273 C9.07887273,15.6861818 8.90607273,15.6953455 8.73425455,15.7018909 C8.69890909,15.7032 8.66356364,15.7051636 8.62821818,15.7061455 C8.22109091,15.7198909 7.81952727,15.7198909 7.41272727,15.7064727 C7.37672727,15.7051636 7.34007273,15.7035273 7.30407273,15.7018909 C7.13454545,15.6953455 6.96370909,15.6865091 6.79123636,15.6750545 C6.75065455,15.6724364 6.71007273,15.6698182 6.66916364,15.6668727 C6.4728,15.6528 6.27414545,15.6361091 6.07090909,15.6161455 C6.06370909,15.6154909 6.05683636,15.6148364 6.04996364,15.6141818 C5.82349091,15.5916 5.59210909,15.5650909 5.35418182,15.5349818 C5.3532,15.5349818 5.35221818,15.5349818 5.35123636,15.5349818 C4.80534545,15.4659273 4.22770909,15.3772364 3.59672727,15.2685818 L1.08949091,14.8352727 C2.39301818,13.3448727 3.05312727,11.5501091 3.05312727,9.49090909 L3.05312727,6.54741818 C3.06425455,4.76869091 4.32556364,3.39349091 5.57018182,2.81945455 C5.94032727,2.64894545 6.32421818,2.52163636 6.71465455,2.43229091 C6.71792727,2.43163636 6.72152727,2.43196364 6.7248,2.43130909 C7.5312,2.25 8.38963636,2.24181818 9.20552727,2.40905455 C9.20978182,2.41003636 9.21403636,2.40807273 9.21829091,2.40872727 C9.64505455,2.49774545 10.0652727,2.63258182 10.4701091,2.81749091 C11.6774182,3.3696 12.8906182,4.73563636 12.8791636,6.54578182 L12.8791636,9.49123636 C12.8791636,11.4656727 13.5909818,13.3016727 14.9452364,14.8359273 L12.4396364,15.2682545 Z" id="Shape" stroke="#075F9E" stroke-width="0.3"></path>
                    <path d="M10.0623273,3.71061818 C8.79414545,3.13101818 7.24123636,3.13036364 5.98156364,3.71127273 C5.2632,4.04247273 4.04476364,5.01152727 4.03494051,6.54349091 C4.03396364,6.72414545 4.17927273,6.87141818 4.36025455,6.87272727 C4.36090909,6.87272727 4.36156364,6.87272727 4.36221818,6.87272727 C4.54189091,6.87272727 4.68850909,6.72774545 4.68949091,6.54741818 C4.69701818,5.34403636 5.67752727,4.57232727 6.25549091,4.3056 C7.34563636,3.80258182 8.69236364,3.80389091 9.78970909,4.3056 C9.954,4.38087273 10.1484,4.30854545 10.2236727,4.14425455 C10.2989455,3.97963636 10.2266182,3.78556364 10.0623273,3.71061818 Z" id="Path"></path>
                </g>
            </g>
        </g>
    </g>
</svg>