<svg xmlns="http://www.w3.org/2000/svg" width="42" height="40" viewBox="0 0 42 40">
    <g fill="none" fill-rule="evenodd">
        <g>
            <g>
                <g transform="translate(-19 -385) translate(-.5 70) translate(20.5 315)">
                    <rect width="40" height="40" fill="#DDF1FF" rx="6"/>
                    <g fill="#075F9E" fill-rule="nonzero" stroke="#075F9E" stroke-width=".3">
                        <g>
                            <path d="M21.926 0H2.074C.931 0 0 .93 0 2.074v11.962c0 1.144.93 2.075 2.074 2.075h19.852c1.143 0 2.074-.93 2.074-2.075V2.074C24 .931 23.07 0 21.926 0zm1.361 14.036c0 .751-.61 1.362-1.361 1.362H2.074c-.75 0-1.361-.61-1.361-1.362V2.074c0-.75.61-1.361 1.361-1.361h19.852c.75 0 1.361.61 1.361 1.361v11.962z" transform="translate(8 11.2)"/>
                            <path d="M10.67 2.852H2.4c-.197 0-.356.159-.356.356v.855c0 .197.16.357.356.357.197 0 .357-.16.357-.357v-.499h7.556v8.697H2.757V5.49c0-.197-.16-.356-.357-.356-.197 0-.356.16-.356.356v7.129c0 .197.16.356.356.356h8.27c.196 0 .356-.16.356-.356v-9.41c0-.197-.16-.356-.357-.356zM21.695 3.678h-8.934c-.197 0-.357.16-.357.357 0 .196.16.356.357.356h8.934c.197 0 .357-.16.357-.356 0-.197-.16-.357-.357-.357h0zM21.695 6.264H19.7c-.197 0-.356.16-.356.356 0 .197.16.357.356.357h1.996c.197 0 .357-.16.357-.357 0-.197-.16-.356-.357-.356h0zM12.76 6.977h5.513c.197 0 .357-.16.357-.357 0-.197-.16-.356-.357-.356h-5.512c-.197 0-.357.16-.357.356 0 .197.16.357.357.357h0zM21.695 8.85h-8.934c-.197 0-.357.159-.357.356 0 .196.16.356.357.356h8.934c.197 0 .357-.16.357-.356 0-.197-.16-.357-.357-.357h0zM17.608 11.435h-4.847c-.197 0-.357.16-.357.356 0 .197.16.357.357.357h4.847c.197 0 .356-.16.356-.357 0-.197-.159-.356-.356-.356h0z" transform="translate(8 11.2)"/>
                            <path d="M4.04 11.477c0 .197.16.357.356.357.197 0 .357-.16.357-.357 0-.982.8-1.782 1.782-1.782.983 0 1.782.8 1.782 1.782 0 .197.16.357.356.357.197 0 .357-.16.357-.357 0-.907-.486-1.702-1.212-2.138.726-.437 1.212-1.232 1.212-2.14 0-1.375-1.12-2.494-2.495-2.494-1.376 0-2.495 1.12-2.495 2.495 0 .907.486 1.702 1.211 2.139-.725.436-1.211 1.231-1.211 2.138zM4.753 7.2c0-.983.8-1.782 1.782-1.782.983 0 1.782.8 1.782 1.782 0 .983-.8 1.782-1.782 1.782-.983 0-1.782-.8-1.782-1.782z" transform="translate(8 11.2)"/>
                        </g>
                    </g>
                </g>
            </g>
        </g>
    </g>
</svg>
