<svg xmlns="http://www.w3.org/2000/svg" width="30" height="30" viewBox="0 0 30 30">
    <g fill="none" fill-rule="evenodd">
        <g fill="#000" fill-rule="nonzero">
            <g>
                <g>
                    <g>
                        <path d="M2.602 3.317h12.761c.292 0 .528.23.528.515v2.913h1.037c.291 0 .527.23.527.514 0 .284-.236.514-.527.514H15.89v3.599c0 .284-.236.514-.528.514H2.602c-.292 0-.528-.23-.528-.514v-3.6H1.072c-.29 0-.527-.23-.527-.513 0-.284.236-.514.527-.514h1.002V3.832c0-.284.236-.515.528-.515zm-1.547.035V1.707h1.687c.291 0 .528-.23.528-.514 0-.284-.237-.515-.528-.515H.528C.236.678 0 .908 0 1.193v2.159c0 .284.236.514.528.514.29 0 .527-.23.527-.514zm2.074 3.393h1.055v-2.4H3.129v2.4zm2.11 0h1.054v-2.4H5.238v2.4zm2.109 0h1.054v-2.4H7.348v2.4zm2.109 0h1.055v-2.4H9.457v2.4zm2.11 0h1.054v-2.4h-1.055v2.4zm2.109 0h1.16v-2.4h-1.16v2.4zm1.16 1.028h-1.16v2.061c0 .284-.236.514-.528.514-.29 0-.527-.23-.527-.514V7.773h-1.055v.206c0 .284-.236.514-.527.514-.291 0-.527-.23-.527-.514v-.206H9.457v.206c0 .284-.236.514-.527.514-.291 0-.528-.23-.528-.514v-.206H7.348v.206c0 .284-.236.514-.528.514-.29 0-.527-.23-.527-.514v-.206H5.238v2.061c0 .284-.236.514-.527.514-.291 0-.527-.23-.527-.514V7.773H3.129v3.084h11.707V7.773zm-4.324 1.952v.139c0 .284.236.514.527.514.291 0 .527-.23.527-.514v-.14c0-.283-.236-.513-.527-.513-.291 0-.527.23-.527.514zm-2.11 0v.139c0 .284.237.514.528.514.291 0 .527-.23.527-.514v-.14c0-.283-.236-.513-.527-.513-.291 0-.528.23-.528.514zm-2.109 0v.139c0 .284.236.514.527.514.292 0 .528-.23.528-.514v-.14c0-.283-.236-.513-.528-.513-.29 0-.527.23-.527.514zm10.652 2.126v1.645h-1.687c-.291 0-.527.23-.527.515 0 .284.236.514.527.514h2.215c.29 0 .527-.23.527-.514v-2.16c0-.284-.236-.514-.527-.514-.292 0-.528.23-.528.514zM0 11.851v2.16c0 .284.236.514.527.514h2.215c.291 0 .527-.23.527-.514 0-.284-.236-.515-.527-.515H1.055v-1.645c0-.284-.236-.514-.528-.514-.29 0-.527.23-.527.514zm18-8.5V1.194c0-.284-.236-.515-.527-.515h-2.215c-.291 0-.527.23-.527.515 0 .284.236.514.527.514h1.687v1.645c0 .284.236.514.528.514.29 0 .527-.23.527-.514z" transform="translate(-35 -85) translate(20 80) translate(15 5) translate(6 7.2)"/>
                    </g>
                </g>
            </g>
        </g>
    </g>
</svg>
