<?xml version="1.0" encoding="UTF-8"?>
<svg width="42px" height="40px" viewBox="0 0 42 40" version="1.1" xmlns="http://www.w3.org/2000/svg" xmlns:xlink="http://www.w3.org/1999/xlink">
    <title>8DF564EB-CA68-4CE5-BAD5-C3930DC723D4</title>
    <g id="Page-1" stroke="none" stroke-width="1" fill="none" fill-rule="evenodd">
        <g id="E00_RESTO-ATOS_MOBILE_APP" transform="translate(-19.000000, -245.000000)">
            <g id="Bloc-Consommation-du-mois" transform="translate(-0.499307, 70.000000)">
                <g id="Icon-Historisue" transform="translate(20.499307, 175.000000)">
                    <rect id="Rectangle-Copy-9" fill="#DDF1FF" x="0" y="0" width="40" height="40" rx="6"></rect>
                    <g id="Icon/historique" stroke="#075F9E" stroke-linecap="round" stroke-linejoin="round">
                        <g id="Orion_purchase-order(1)" transform="translate(8.000000, 8.000000)">
                            <path d="M5.6,18.4 L5.6,2.4 C5.6,1.0745166 6.6745166,0 8,0 L21.6,0" id="Path"></path>
                            <path d="M19.2,4 L24,4 L24,2.4 C24,1.0745166 22.9254834,0 21.6,0 C20.2745166,0 19.2,1.0745166 19.2,2.4 L19.2,20 C19.2,21.060866 18.7785726,22.0782816 18.0284271,22.8284271 C17.2782816,23.5785726 16.260866,24 15.2,24 C12.990861,24 11.2,22.209139 11.2,20 L11.2,18.4 L0,18.4 L0,20 C0,21.060866 0.421427361,22.0782816 1.17157288,22.8284271 C1.92171839,23.5785726 2.93913404,24 4,24 L15.2,24" id="Path"></path>
                            <path d="M8.8,4 L15.2,4 M8.8,10.4 L15.2,10.4 M8.8,7.2 L13.6,7.2 M8.8,13.6 L13.6,13.6" id="Shape"></path>
                        </g>
                    </g>
                </g>
            </g>
        </g>
    </g>
</svg>