<?xml version="1.0" encoding="UTF-8"?>
<svg width="30px" height="30px" viewBox="0 0 30 30" version="1.1" xmlns="http://www.w3.org/2000/svg" xmlns:xlink="http://www.w3.org/1999/xlink">
    <title>83BE8659-2760-4197-948E-0B3AEF7FE74B</title>
    <g id="Page-1" stroke="none" stroke-width="1" fill="none" fill-rule="evenodd" stroke-linecap="round" stroke-linejoin="round">
        <g id="E00_RESTO-ATOS_MOBILE_APP" transform="translate(-310.000000, -30.000000)" stroke="#075F9E">
            <g id="Icon/Admin-Copy-2" transform="translate(310.000000, 30.000000)">
                <g id="Orion_gear" transform="translate(6.000000, 6.000000)">
                    <circle id="Oval" cx="9" cy="9" r="4.2"></circle>
                    <path d="M17.0718,7.5 C16.6570928,7.4964378 16.293937,7.22099076 16.1787,6.8226 C16.03628,6.35328687 15.8478658,5.89918373 15.6162,5.4669 C15.4148711,5.10324585 15.4764967,4.65051135 15.7677,4.3539 C16.1292781,3.99099079 16.1292781,3.40400921 15.7677,3.0411 L14.9598,2.2317 C14.5968908,1.87012186 14.0099092,1.87012186 13.647,2.2317 C13.3503886,2.52290332 12.8976541,2.5845289 12.534,2.3832 C12.1017163,2.15153416 11.6476131,1.96312004 11.1783,1.8207 C10.779764,1.70585588 10.5039436,1.34293437 10.5,0.9282 C10.4990096,0.415980109 10.0840199,0.000990437628 9.5718,0 L8.4282,0 C7.91598011,0.000990437628 7.50099044,0.415980109 7.5,0.9282 C7.4964378,1.3429072 7.22099076,1.70606303 6.8226,1.8213 C6.35328687,1.96372004 5.89918373,2.15213416 5.4669,2.3838 C5.10324585,2.5851289 4.65051135,2.52350332 4.3539,2.2323 C3.99099079,1.87072186 3.40400921,1.87072186 3.0411,2.2323 L2.2326,3.0423 C1.87102186,3.40520921 1.87102186,3.99219079 2.2326,4.3551 C2.52380332,4.65171135 2.5854289,5.10444585 2.3841,5.4681 C2.15243416,5.90038373 1.96402004,6.35448687 1.8216,6.8238 C1.70589268,7.22182114 1.34268558,7.49672672 0.9282,7.5 C0.415980109,7.50099044 0.000990437628,7.91598011 0,8.4282 L0,9.5715 C0.000825392796,10.083837 0.415863249,10.499009 0.9282,10.5 C1.3429072,10.5035622 1.70606303,10.7790092 1.8213,11.1774 C1.9637182,11.6467138 2.15213239,12.1008171 2.3838,12.5331 C2.5851289,12.8967541 2.52350332,13.3494886 2.2323,13.6461 C1.87072186,14.0090092 1.87072186,14.5959908 2.2323,14.9589 L3.0423,15.7689 C3.40520921,16.1304781 3.99219079,16.1304781 4.3551,15.7689 C4.65171135,15.4776967 5.10444585,15.4160711 5.4681,15.6174 C5.90038373,15.8490658 6.35448687,16.03748 6.8238,16.1799 C7.22129351,16.2954477 7.4960675,16.6578714 7.5,17.0718 C7.50099044,17.5840199 7.91598011,17.9990096 8.4282,18 L9.5715,18 C10.083837,17.9991746 10.499009,17.5841368 10.5,17.0718 C10.5035622,16.6570928 10.7790092,16.293937 11.1774,16.1787 C11.6467131,16.03628 12.1008163,15.8478658 12.5331,15.6162 C12.8967541,15.4148711 13.3494886,15.4764967 13.6461,15.7677 C14.0090092,16.1292781 14.5959908,16.1292781 14.9589,15.7677 L15.7689,14.9592 C16.1304781,14.5962908 16.1304781,14.0093092 15.7689,13.6464 C15.4776967,13.3497886 15.4160711,12.8970541 15.6174,12.5334 C15.8490676,12.1011171 16.0374818,11.6470138 16.1799,11.1777 C16.2948999,10.7796125 16.6574553,10.504129 17.0718,10.5 C17.5840199,10.4990096 17.9990096,10.0840199 18,9.5718 L18,8.4282 C17.9990096,7.91598011 17.5840199,7.50099044 17.0718,7.5 Z" id="Path"></path>
                </g>
            </g>
        </g>
    </g>
</svg>