<svg xmlns="http://www.w3.org/2000/svg" width="30" height="30" viewBox="0 0 30 30">
    <g fill="none" fill-rule="evenodd" stroke-linecap="round" stroke-linejoin="round">
        <g stroke="#000">
            <g>
                <g>
                    <g transform="translate(-20 -190) translate(-50.5 70) translate(70.5 120) translate(6 6)">
                        <circle cx="7.2" cy="10.8" r="2.7"/>
                        <circle cx="12.9" cy="5.1" r="1.8"/>
                        <path d="M8.4 4.2v-.15c0-.249-.201-.45-.45-.45h-1.5c-.249 0-.45.201-.45.45v1.179c-.672.145-1.313.41-1.89.785l-.836-.835c-.175-.176-.46-.176-.636 0L1.578 6.24c-.175.176-.175.46 0 .636l.836.834c-.374.577-.64 1.218-.785 1.89H.45c-.249 0-.45.201-.45.45v1.5c0 .249.201.45.45.45h1.179c.145.672.41 1.313.785 1.89l-.835.835c-.176.175-.176.46 0 .636l1.061 1.06c.176.176.46.176.636 0l.834-.835c.577.374 1.218.64 1.89.785v1.179c0 .249.201.45.45.45h1.5c.249 0 .45-.201.45-.45v-1.179c.672-.145 1.313-.41 1.89-.785l.836.835c.175.176.46.176.636 0l1.06-1.061c.175-.176.175-.46 0-.636l-.836-.834c.374-.577.64-1.218.785-1.89h1.179c.249 0 .45-.201.45-.45v-1.5c0-.249-.201-.45-.45-.45h-.15"/>
                        <path d="M17.55 4.2h-.859c-.1-.421-.269-.823-.5-1.188l.6-.6c.175-.176.175-.46 0-.636l-.568-.565c-.175-.176-.46-.176-.636 0l-.6.6c-.365-.233-.766-.402-1.187-.502V.45c0-.249-.201-.45-.45-.45h-.9c-.249 0-.45.201-.45.45v.859c-.421.1-.823.269-1.188.5l-.6-.6c-.176-.175-.46-.175-.636 0l-.565.568c-.176.175-.176.46 0 .636l.6.6c-.233.365-.402.766-.502 1.187H8.25c-.249 0-.45.201-.45.45v.9c0 .249.201.45.45.45h.859c.1.421.269.823.5 1.188l-.6.6c-.175.176-.175.46 0 .636l.567.566c.175.176.46.176.636 0l.6-.6c.365.232.767.402 1.188.501v.859c0 .249.201.45.45.45h.9c.249 0 .45-.201.45-.45v-.859c.421-.1.823-.269 1.188-.5l.6.6c.176.175.46.175.636 0l.566-.567c.176-.175.176-.46 0-.636l-.6-.6c.232-.365.402-.767.501-1.188h.859c.249 0 .45-.201.45-.45v-.9c0-.249-.201-.45-.45-.45z"/>
                    </g>
                </g>
            </g>
        </g>
    </g>
</svg>
