<?xml version="1.0" encoding="UTF-8"?>
<svg width="53px" height="17px" viewBox="0 0 53 17" version="1.1" xmlns="http://www.w3.org/2000/svg" xmlns:xlink="http://www.w3.org/1999/xlink">
    <title>EC252F01-AAAB-42A1-8096-EF55A1A0905B</title>
    <g id="Page-1" stroke="none" stroke-width="1" fill="none" fill-rule="evenodd">
        <g id="E00_RESTO-ATOS_MOBILE_APP" transform="translate(-20.000000, -36.000000)">
            <g id="Logo-ATOS" transform="translate(20.000000, 36.000000)">
                <path d="M29.5537827,5.67444396 C29.5078951,5.97530659 29.503714,6.28042773 29.4617984,6.57703187 C29.4408929,6.71692342 29.3991864,6.86522549 29.3239265,6.97967253 C27.8109937,9.25956404 28.542478,12.4846284 30.8786703,13.7262989 C32.2035579,14.4298022 33.5242643,14.3705027 34.8198842,13.6161104 C34.8742385,13.5865139 34.9243072,13.5440354 34.9786616,13.5101803 C34.995386,13.4975113 35.0162915,13.4889943 35.0664648,13.4593978 C34.9786616,13.4085088 34.9243072,13.3746538 34.8658763,13.3448443 C32.6423648,12.2600993 31.2423219,10.4970825 30.7574183,8.04759649 C30.3646035,6.0558986 30.7699616,4.19546881 31.8942606,2.50878559 C31.9527961,2.41978305 32.0865915,2.32652202 32.1868334,2.32226353 C33.9547091,2.20781649 35.5847127,2.63164316 37.0182045,3.70808411 C38.6189405,4.90727617 39.601082,6.50921535 39.9103792,8.50943023 C40.524688,12.4803699 37.9126473,16.0952995 34.1679454,16.8454333 C31.8231819,17.315784 29.7335702,16.7055417 27.9238836,15.1121195 C27.8695292,15.065489 27.819356,15.0188585 27.7650016,14.972228 C27.7566394,14.9638175 27.739915,14.9638175 27.7106472,14.951042 C27.6771984,14.9850035 27.6354919,15.0188585 27.5977574,15.056972 C26.6532458,16.0994515 25.478878,16.7055417 24.0997406,16.9047328 C22.9630028,17.0658104 21.8511425,16.9640323 20.7979222,16.4682371 C19.5399323,15.8791809 18.8210959,14.8536289 18.5828775,13.4847358 C18.503541,13.0313126 18.4825309,12.5608555 18.4783498,12.0947632 C18.4699876,9.95465681 18.4741687,7.81444392 18.4741687,5.67444396 C18.4741687,5.36921636 18.4741687,5.36921636 18.1815959,5.36921636 C17.5254761,5.36921636 16.8735373,5.36506433 16.2173129,5.37347486 C16.0501733,5.37773335 16,5.31843381 16,5.15735626 C16.0041811,4.44544244 16.0041811,3.72927012 16,3.0173563 C16,2.86053724 16.0543544,2.80964823 16.2089507,2.80964823 C16.8859761,2.81805875 17.5588204,2.80538973 18.2359503,2.81805875 C18.4199189,2.82231725 18.4783498,2.75875922 18.4783498,2.57660211 C18.4741687,1.81379928 18.4741687,1.05099645 18.4783498,0.288193617 C18.4783498,0 18.4783498,0 18.7709226,0 L21.4875955,0 C21.7800637,0 21.7800637,0 21.7800637,0.309273165 C21.7800637,1.05940698 21.7842448,1.80528229 21.7759872,2.5554161 C21.7717015,2.75875922 21.8345226,2.82231725 22.0351111,2.81805875 C23.1216757,2.80964823 24.2084494,2.81805875 25.295014,2.80964823 C25.4914214,2.80964823 25.5374135,2.87320626 25.5374135,3.05972832 C25.5289468,3.75045613 25.5289468,4.44544244 25.5374135,5.13627671 C25.5415946,5.31843381 25.4956025,5.37773335 25.3075573,5.37347486 C24.2125259,5.36506433 23.1216757,5.37347486 22.0267489,5.36506433 C21.8303415,5.36506433 21.7759872,5.42862236 21.7800637,5.61929645 C21.7842448,7.70862033 21.7800637,9.80209624 21.7842448,11.8913137 C21.7884259,12.5863 21.9347646,13.2389142 22.4363926,13.7560019 C23.0338725,14.3746547 23.7694334,14.4637637 24.5593486,14.2815002 C25.2113919,14.1374566 25.775632,13.798374 26.2688978,13.3321753 C26.3816831,13.2262452 26.3858642,13.1415012 26.3147854,13.0058681 C25.7045532,11.8234971 25.4371715,10.5563821 25.516508,9.225709 C25.6962955,6.23805571 27.5936808,3.75045613 30.2267315,2.75875922 C30.2768003,2.73767967 30.3311546,2.72479772 30.42732,2.69094269 C29.9216154,3.64867811 29.7084836,4.65315051 29.5537827,5.67444396 Z" id="Path" fill="#075F9E"></path>
                <path d="M11.1273899,9.34725232 C10.3325952,7.24211167 9.55497765,5.16545473 8.77325488,3.0887978 C8.75164839,3.0887978 8.7300419,3.0887978 8.70400608,3.09288149 C7.9222833,5.16953842 7.1404525,7.24619535 6.3456578,9.34725232 L11.1273899,9.34725232 Z M12.8897232,14.0328748 C12.8421889,13.8906604 12.8077266,13.784995 12.7644055,13.6793296 C12.5485567,13.1062862 12.3281705,12.5332428 12.116535,11.9603015 C12.0690007,11.8261524 11.9956467,11.7815381 11.8531519,11.7815381 C9.77957711,11.7855197 7.70632645,11.7815381 5.63296775,11.7815381 C5.52061401,11.7815381 5.42565349,11.7855197 5.37801118,11.9155852 C5.13612654,12.5779592 4.88570733,13.2404353 4.63939335,13.906893 C4.62642946,13.9352747 4.62642946,13.9719258 4.61346557,14.0328748 L5.59396804,14.0328748 C5.68903659,14.0328748 5.77978385,14.0369585 5.8748524,14.0328748 C5.98277681,14.028689 6.03031109,14.0612564 6.03031109,14.1710055 C6.02598979,14.7317978 6.02598979,15.2966738 6.03031109,15.8575682 C6.03031109,16.0078479 5.93956383,15.9956989 5.83153139,15.9956989 L3.41268493,15.9956989 C2.3543991,15.9956989 1.29611326,15.9916153 0.237827428,15.9997826 C0.0433690264,15.9997826 -0.00405721711,15.9428152 0.000264080706,15.7681355 C0.0132279742,15.2520595 0.00890667634,14.7399652 0.000264080706,14.2238892 C-0.00405721711,14.0694238 0.0476903243,14.0247074 0.211899641,14.028689 C0.544531541,14.0410422 0.87273411,14.0206237 1.20536601,14.0369585 C1.38253922,14.0450238 1.46032258,13.9840747 1.51639142,13.8336929 C2.15140613,12.1309997 2.79063411,10.432288 3.42997013,8.72939047 C4.24205002,6.57157026 5.05834318,4.41364796 5.8705311,2.25572565 C5.90499345,2.16629291 5.93092124,2.07686016 5.96981292,1.95904579 C5.8705311,1.95098051 5.79706904,1.93872945 5.72360698,1.93872945 C5.27008677,1.93872945 4.81656656,1.93066417 4.36304636,1.94281313 C4.19883704,1.94689682 4.15562406,1.88992939 4.15562406,1.7436313 C4.16426666,1.24378801 4.16858796,0.739861036 4.15130276,0.240017747 C4.14266017,0.0287890371 4.22908612,0.000203228092 4.42343649,0.000203228092 C6.16427132,0.00428691509 7.90499811,0.00428691509 9.6500462,0.00428691509 C10.1382448,0.00428691509 10.6305487,0.0124542891 11.1187473,0.000203228092 C11.3002418,-0.00388045891 11.3779171,0.0530869748 11.4384153,0.21571981 C12.9286149,4.17791712 14.4231357,8.13215125 15.9177646,12.0943486 C16.1380427,12.679643 16.3626422,13.2647333 16.5742778,13.8541114 C16.6261333,13.99214 16.6952741,14.0450238 16.8551621,14.0410422 C17.1705088,14.028689 17.4900688,14.0450238 17.8053075,14.0328748 C17.9609822,14.028689 17.9997659,14.0815727 17.9997659,14.2198056 C17.9911233,14.7399652 17.9911233,15.2642085 17.9997659,15.7843681 C18.0039791,15.9510847 17.9522316,16.0038663 17.7708451,15.9997826 C16.4966024,15.9916153 15.2222517,15.9956989 13.948009,15.9956989 C13.2224631,15.9956989 12.4923798,15.9916153 11.7666179,15.9997826 C11.5809101,16.0038663 11.5376971,15.947001 11.5376971,15.7803865 C11.5463397,15.2601248 11.5463397,14.7358815 11.5376971,14.215824 C11.5376971,14.0735075 11.5809101,14.0247074 11.7321555,14.028689 C12.1122137,14.0410422 12.4837372,14.0328748 12.8897232,14.0328748 L12.8897232,14.0328748 Z" id="Fill-4" fill="#075F9E"></path>
                <path d="M40,15.5178723 C40.2244455,15.1635059 40.4319437,14.8388114 40.6309683,14.5055332 C40.8893084,14.0711588 41.1350439,13.6282009 41.3764367,13.1852429 C41.4441199,13.0587138 41.4991985,13.0121926 41.651724,13.0713243 C42.7273465,13.5016717 43.8369695,13.8178886 44.9804871,13.9824613 C46.0264519,14.1343174 47.0768653,14.1891044 48.0931723,13.8178886 C48.4193015,13.6998371 48.736957,13.522654 49.0122444,13.3160109 C49.7279491,12.7803285 49.6136609,11.7762551 49.1181649,11.3250314 C48.8005093,11.0381684 48.4277751,10.7766325 48.0339628,10.6120598 C47.1699694,10.2576934 46.2764242,9.97506929 45.3954835,9.66298527 C44.391781,9.30438006 43.4006831,8.92044783 42.5367956,8.27932446 C41.5712245,7.57493651 41.0418339,6.62999484 40.9148352,5.44036658 C40.6521524,2.98534092 42.0455364,1.42047003 43.8666273,0.656950379 C44.7390943,0.289973479 45.6495868,0.104312628 46.5898429,0.0325703922 C48.2160401,-0.093852779 49.8043177,0.167577199 51.3923836,0.47552836 C51.5448031,0.505094215 51.6930918,0.55574826 51.8455114,0.572597618 C52.0615892,0.593685808 52.1335092,0.686410263 52.1250356,0.910008663 C52.0572464,2.27671414 52.0065105,3.64765846 51.9514319,5.01446991 C51.9471951,5.12828255 51.90059,5.15774244 51.7990123,5.15774244 C51.0450703,5.14089308 50.2912342,5.12828255 49.5331613,5.11991086 C49.3806358,5.11991086 49.3849786,5.02708043 49.3849786,4.92587831 C49.3892154,4.30149833 49.3849786,3.67298548 49.397689,3.04871146 C49.4019258,2.89674933 49.3468472,2.8293519 49.2029012,2.81239657 C48.0424364,2.65216871 46.8820775,2.59314297 45.7512704,2.9727304 C45.4166676,3.08241018 45.0864076,3.25535453 44.8068834,3.47047527 C44.1249673,4.00202483 44.0953096,4.8878348 44.7094366,5.49525945 C45.2345903,6.01833135 45.8994532,6.32214965 46.5771324,6.5793408 C47.5511772,6.9463177 48.5420633,7.26698535 49.516214,7.63820109 C50.3886811,7.9713733 51.2230167,8.38052658 51.9091696,9.03860528 C52.586637,9.68820632 52.9042926,10.4940083 52.9805553,11.4219947 C53.0652917,12.4849878 52.8788716,13.4804776 52.3071129,14.3832429 C51.6803814,15.3744938 50.7529416,15.9987678 49.6771072,16.4163987 C48.8047461,16.7580486 47.8941477,16.9268601 46.9624712,16.9774082 C44.7941729,17.0955656 42.7105052,16.7538098 40.7241783,15.8679998 C40.4870224,15.7626648 40.2582341,15.6402686 40,15.5178723" id="Fill-7" fill="#075F9E"></path>
                <path d="M33.1940634,6.2157173 C32.9788319,6.92865689 32.9336058,7.64612976 33.1039869,8.36791475 C33.5097695,10.0843655 34.5967007,11.3123287 36.4751523,11.9637928 C36.6956455,12.0429591 36.7857219,11.9945306 36.835834,11.7965041 C37.2515138,10.1240592 36.8909573,8.60994713 35.6035778,7.3028175 C34.9874497,6.67346698 34.2160994,6.24203238 33.2792539,6 C33.2493119,6.07927694 33.2192447,6.14528577 33.1940634,6.2157173 Z" id="Path" fill="#FFFFFF"></path>
            </g>
        </g>
    </g>
</svg>