<?xml version="1.0" encoding="UTF-8"?>
<svg width="61px" height="48px" viewBox="0 0 61 48" version="1.1" xmlns="http://www.w3.org/2000/svg" xmlns:xlink="http://www.w3.org/1999/xlink">
    <title>Rectangle Copy 18</title>
    <g id="Caissier" stroke="none" stroke-width="1" fill="none" fill-rule="evenodd">
        <g id="K00_RESTO-ATOS_MOBILE_APP-Copy" transform="translate(-30.000000, -548.000000)">
            <g id="Group" transform="translate(10.000000, 520.000000)">
                <g id="Group-9" transform="translate(20.000000, 28.000000)">
                    <path d="M60.0268,22.4216 L48.3268,8.6336 L54.5428,2.4656 C54.9948,2.0136 54.9948,1.2856 54.5428,0.8376 C54.0908,0.3856 53.3548,0.3856 52.8988,0.8376 L45.9348,7.7496 C45.5108,8.1736 45.4788,8.8496 45.8668,9.3096 L47.6788,11.4456 L46.8308,12.0976 C45.0668,11.8416 41.0828,11.5656 39.1148,11.8576 C38.2308,11.9936 35.5428,12.8176 34.8828,12.9816 C34.1908,13.1536 31.6508,13.4056 29.1748,13.6376 C29.0908,13.4776 28.9588,13.3376 28.7948,13.2256 C26.6668,11.8296 25.9268,11.5936 25.4428,11.5496 C23.6228,11.3976 18.7668,11.4736 16.7068,11.7256 L15.5428,10.9376 C18.1988,7.7896 18.4668,7.5136 18.4268,7.0256 C18.3628,6.2976 17.7068,5.4896 12.8308,1.8496 C12.3148,1.4696 11.5908,1.5736 11.2068,2.0776 C10.8188,2.5896 10.9268,3.3136 11.4348,3.6936 C13.0428,4.8896 14.8908,6.4016 15.6268,7.1696 C14.5428,8.6136 10.9948,12.6896 8.3228,15.7696 C3.3908,21.4416 1.4348,23.6896 0.7628,24.7896 C0.0588,25.9296 0.9108,26.7976 1.7348,26.7576 C2.2668,26.7296 2.6948,26.3536 2.8068,25.8616 C2.9908,25.5896 3.3748,25.1096 3.8908,24.4856 C3.9708,24.6896 6.3348,26.4136 6.3988,26.5256 C6.8788,27.4256 9.6468,32.1576 11.7148,34.1976 C9.9828,35.5336 9.9148,35.6016 9.8668,35.6496 C9.1788,36.2616 7.7948,37.9656 9.8428,40.3856 C11.1228,41.9056 13.1108,42.1016 14.6108,41.1816 C15.3868,43.0776 17.4628,44.2696 19.3668,43.8136 C19.7268,44.6296 20.3708,45.4016 21.1668,45.9176 C22.8468,47.0056 24.5308,46.4376 25.0108,46.0376 L25.8948,45.3216 C26.4068,46.2656 27.6588,46.9256 28.6108,47.2096 C29.2028,47.3816 29.6108,47.4176 30.2188,47.2696 C31.7628,46.8896 33.5228,45.4176 35.4748,43.7136 C36.4028,44.3376 38.4348,46.2376 41.1668,44.2136 C42.1228,43.5056 42.8508,42.4616 43.1748,41.4176 C43.3308,41.4576 43.9428,41.5176 44.0788,41.5176 C46.1748,41.5176 48.1668,39.9256 48.7428,37.7696 C50.5628,38.8896 52.9588,38.6016 54.3908,36.6536 C55.9908,34.4576 55.9428,32.2656 54.2508,30.9296 C54.1948,30.8816 54.1108,30.8216 52.8628,29.9656 C54.5228,27.7816 56.3028,24.0456 56.3228,24.0016 C56.3548,23.9416 56.3908,23.8936 56.4428,23.8496 L57.5068,23.0296 L58.2508,23.9056 C58.6628,24.3896 59.3988,24.4576 59.8868,24.0456 C60.3788,23.6336 60.4428,22.9056 60.0268,22.4216 L60.0268,22.4216 Z M12.7388,39.4296 C12.2708,39.4496 11.9228,39.2576 11.6188,38.9056 C10.7908,37.9216 11.1108,37.6336 11.4108,37.3656 C11.5228,37.2736 12.4228,36.5656 17.1948,32.8856 C17.7388,32.4696 18.5948,32.4616 19.1628,33.0536 C19.5868,33.4896 19.7468,34.2256 19.0108,34.8136 C17.7388,35.8336 13.0348,39.4176 12.7388,39.4296 L12.7388,39.4296 Z M18.9428,41.5336 C18.2148,41.8336 16.9828,41.2056 16.6748,40.0936 C16.6748,40.0936 23.2908,34.6176 23.6828,34.5136 C24.1868,34.4816 24.6828,34.6496 25.0468,34.9816 C25.4828,35.3816 25.7588,36.0336 25.1908,36.6736 C25.1908,36.6736 18.9988,41.4496 18.9428,41.5336 L18.9428,41.5336 Z M23.6508,44.1656 C23.4388,44.2536 23.0108,44.3576 22.4388,43.9896 C21.8148,43.5856 21.4188,42.8776 21.3828,42.5176 L28.8788,36.7536 C29.3148,36.4216 29.9468,36.3896 30.4588,36.7176 C31.1268,37.1416 31.2028,38.0376 30.5788,38.5416 L23.6508,44.1656 Z M35.3468,40.7616 C35.0668,41.0056 31.3548,44.2416 29.9148,44.9336 C29.5268,45.1216 29.2948,45.0176 29.0588,44.9376 C27.5748,44.4376 27.6988,43.8496 27.6988,43.8496 L32.0468,40.3296 C32.4788,39.9776 32.8148,39.5416 33.0308,39.0576 L33.0308,39.0536 C33.0788,39.0216 33.1228,38.9856 33.1668,38.9456 C33.8388,38.3056 34.3708,38.2896 35.0028,38.8896 L35.3868,39.2576 C35.8468,39.6896 35.8068,40.3656 35.3468,40.7616 L35.3468,40.7616 Z M52.5108,35.2976 C51.8108,36.2536 50.7068,36.3176 49.9268,35.7896 L39.3708,27.8456 C38.8628,27.4616 38.1308,27.5616 37.7468,28.0696 C37.3548,28.5736 37.4588,29.2976 37.9668,29.6816 L46.6908,36.2496 C46.2188,38.5816 45.0268,39.3296 43.9108,39.2056 C43.6668,39.1776 35.1828,32.5336 35.1828,32.5336 C34.6788,32.1416 33.9468,32.2256 33.5548,32.7256 C33.1548,33.2256 33.2428,33.9536 33.7468,34.3416 L41.0308,40.0496 C41.0308,40.0936 41.0348,40.1336 41.0388,40.1696 C41.0988,40.6576 40.6468,41.7256 39.7788,42.3656 C38.5588,43.2776 37.8228,42.5256 37.2428,42.1296 C37.7308,41.5536 38.0148,40.8296 38.0348,40.0736 C38.0588,39.1496 37.6788,38.2456 36.9948,37.5936 L36.6108,37.2256 C35.7228,36.3776 34.4268,35.8376 33.0508,36.3296 C32.7788,35.6976 32.3028,35.1536 31.6668,34.7496 C30.4308,33.9616 28.8348,33.9936 27.6348,34.8096 C27.4388,34.2416 27.0988,33.7216 26.6228,33.2896 C24.4428,31.2856 22.5468,32.5416 21.7188,33.0136 C21.5668,32.4336 21.2548,31.8856 20.8028,31.4176 C19.4908,30.0696 17.3068,29.8816 15.7708,31.0656 C14.9148,31.7256 14.1828,32.2896 13.5628,32.7696 C12.1108,31.5176 9.3548,27.5696 8.4348,25.8536 C8.1988,25.4136 7.7388,24.8416 7.3268,24.5656 C7.3268,24.5656 5.3468,22.9576 5.1988,22.9256 C6.6308,21.2416 12.9948,13.9136 14.0348,12.7016 L15.7468,13.8616 C16.0228,14.0536 16.3668,14.1096 16.6828,14.0296 C17.3948,13.9296 22.5188,13.6176 25.2028,13.8416 C25.2228,13.8456 25.3068,13.8696 25.5148,13.9656 C23.3828,14.1616 22.7268,14.2336 22.4428,14.3136 C19.6668,15.1096 19.5868,16.9016 19.6908,17.6776 C19.7188,17.9536 19.8748,18.8616 20.6988,19.7576 C22.0468,21.1936 25.8788,21.7256 32.0908,21.3416 C33.1628,21.8776 36.8308,23.5936 40.4348,23.9296 C40.5188,24.1016 52.7348,32.6776 52.7948,32.7256 C53.6308,33.3856 53.1028,34.4896 52.5108,35.2976 L52.5108,35.2976 Z M55.0188,22.0296 C54.6668,22.3016 54.3948,22.6496 54.2108,23.0496 C53.2428,25.1776 51.5228,27.9696 50.8828,28.7456 C50.7988,28.6056 44.8468,24.3536 43.9228,23.7056 C43.9428,23.7016 43.9668,23.6936 43.9908,23.6896 C44.4748,23.5536 44.9308,23.3696 45.3468,23.1456 C45.9068,22.8376 46.1108,22.1336 45.7988,21.5776 C45.4908,21.0176 44.7868,20.8176 44.2268,21.1256 C43.9628,21.2696 43.6748,21.3816 43.3628,21.4736 C39.4188,22.5736 32.9468,19.1896 32.8828,19.1576 C32.6908,19.0536 32.4748,19.0056 32.2628,19.0216 C26.3868,19.4096 23.0308,18.8576 22.4068,18.1936 C22.2348,18.0056 21.9948,17.4016 21.9908,17.3736 C21.9668,17.2176 21.9148,16.8576 23.0508,16.5336 C23.3788,16.4696 25.4068,16.2896 27.1948,16.1296 C31.2628,15.7656 34.4548,15.4696 35.4548,15.2136 C36.1508,15.0376 36.7508,14.8536 37.3028,14.6856 C38.0828,14.4496 38.7468,14.2456 39.4628,14.1416 C41.6508,13.8136 46.2868,14.3256 46.8668,14.4216 C47.2108,14.5056 47.5828,14.4376 47.8668,14.2176 L49.1748,13.2056 L56.0108,21.2656 L55.0188,22.0296 Z" id="Fill-1" fill="#075F9E"></path>
                    <path d="M60.0268,22.4216 L48.3268,8.6336 L54.5428,2.4656 C54.9948,2.0136 54.9948,1.2856 54.5428,0.8376 C54.0908,0.3856 53.3548,0.3856 52.8988,0.8376 L45.9348,7.7496 C45.5108,8.1736 45.4788,8.8496 45.8668,9.3096 L47.6788,11.4456 L46.8308,12.0976 C45.0668,11.8416 41.0828,11.5656 39.1148,11.8576 C38.2308,11.9936 35.5428,12.8176 34.8828,12.9816 C34.1908,13.1536 31.6508,13.4056 29.1748,13.6376 C29.0908,13.4776 28.9588,13.3376 28.7948,13.2256 C26.6668,11.8296 25.9268,11.5936 25.4428,11.5496 C23.6228,11.3976 18.7668,11.4736 16.7068,11.7256 L15.5428,10.9376 C18.1988,7.7896 18.4668,7.5136 18.4268,7.0256 C18.3628,6.2976 17.7068,5.4896 12.8308,1.8496 C12.3148,1.4696 11.5908,1.5736 11.2068,2.0776 C10.8188,2.5896 10.9268,3.3136 11.4348,3.6936 C13.0428,4.8896 14.8908,6.4016 15.6268,7.1696 C14.5428,8.6136 10.9948,12.6896 8.3228,15.7696 C3.3908,21.4416 1.4348,23.6896 0.7628,24.7896 C0.0588,25.9296 0.9108,26.7976 1.7348,26.7576 C2.2668,26.7296 2.6948,26.3536 2.8068,25.8616 C2.9908,25.5896 3.3748,25.1096 3.8908,24.4856 C3.9708,24.6896 6.3348,26.4136 6.3988,26.5256 C6.8788,27.4256 9.6468,32.1576 11.7148,34.1976 C9.9828,35.5336 9.9148,35.6016 9.8668,35.6496 C9.1788,36.2616 7.7948,37.9656 9.8428,40.3856 C11.1228,41.9056 13.1108,42.1016 14.6108,41.1816 C15.3868,43.0776 17.4628,44.2696 19.3668,43.8136 C19.7268,44.6296 20.3708,45.4016 21.1668,45.9176 C22.8468,47.0056 24.5308,46.4376 25.0108,46.0376 L25.8948,45.3216 C26.4068,46.2656 27.6588,46.9256 28.6108,47.2096 C29.2028,47.3816 29.6108,47.4176 30.2188,47.2696 C31.7628,46.8896 33.5228,45.4176 35.4748,43.7136 C36.4028,44.3376 38.4348,46.2376 41.1668,44.2136 C42.1228,43.5056 42.8508,42.4616 43.1748,41.4176 C43.3308,41.4576 43.9428,41.5176 44.0788,41.5176 C46.1748,41.5176 48.1668,39.9256 48.7428,37.7696 C50.5628,38.8896 52.9588,38.6016 54.3908,36.6536 C55.9908,34.4576 55.9428,32.2656 54.2508,30.9296 C54.1948,30.8816 54.1108,30.8216 52.8628,29.9656 C54.5228,27.7816 56.3028,24.0456 56.3228,24.0016 C56.3548,23.9416 56.3908,23.8936 56.4428,23.8496 L57.5068,23.0296 L58.2508,23.9056 C58.6628,24.3896 59.3988,24.4576 59.8868,24.0456 C60.3788,23.6336 60.4428,22.9056 60.0268,22.4216 Z M12.7388,39.4296 C12.2708,39.4496 11.9228,39.2576 11.6188,38.9056 C10.7908,37.9216 11.1108,37.6336 11.4108,37.3656 C11.5228,37.2736 12.4228,36.5656 17.1948,32.8856 C17.7388,32.4696 18.5948,32.4616 19.1628,33.0536 C19.5868,33.4896 19.7468,34.2256 19.0108,34.8136 C17.7388,35.8336 13.0348,39.4176 12.7388,39.4296 Z M18.9428,41.5336 C18.2148,41.8336 16.9828,41.2056 16.6748,40.0936 C16.6748,40.0936 23.2908,34.6176 23.6828,34.5136 C24.1868,34.4816 24.6828,34.6496 25.0468,34.9816 C25.4828,35.3816 25.7588,36.0336 25.1908,36.6736 C25.1908,36.6736 18.9988,41.4496 18.9428,41.5336 Z M23.6508,44.1656 C23.4388,44.2536 23.0108,44.3576 22.4388,43.9896 C21.8148,43.5856 21.4188,42.8776 21.3828,42.5176 L28.8788,36.7536 C29.3148,36.4216 29.9468,36.3896 30.4588,36.7176 C31.1268,37.1416 31.2028,38.0376 30.5788,38.5416 L23.6508,44.1656 Z M35.3468,40.7616 C35.0668,41.0056 31.3548,44.2416 29.9148,44.9336 C29.5268,45.1216 29.2948,45.0176 29.0588,44.9376 C27.5748,44.4376 27.6988,43.8496 27.6988,43.8496 L32.0468,40.3296 C32.4788,39.9776 32.8148,39.5416 33.0308,39.0576 L33.0308,39.0536 C33.0788,39.0216 33.1228,38.9856 33.1668,38.9456 C33.8388,38.3056 34.3708,38.2896 35.0028,38.8896 L35.3868,39.2576 C35.8468,39.6896 35.8068,40.3656 35.3468,40.7616 Z M52.5108,35.2976 C51.8108,36.2536 50.7068,36.3176 49.9268,35.7896 L39.3708,27.8456 C38.8628,27.4616 38.1308,27.5616 37.7468,28.0696 C37.3548,28.5736 37.4588,29.2976 37.9668,29.6816 L46.6908,36.2496 C46.2188,38.5816 45.0268,39.3296 43.9108,39.2056 C43.6668,39.1776 35.1828,32.5336 35.1828,32.5336 C34.6788,32.1416 33.9468,32.2256 33.5548,32.7256 C33.1548,33.2256 33.2428,33.9536 33.7468,34.3416 L41.0308,40.0496 C41.0308,40.0936 41.0348,40.1336 41.0388,40.1696 C41.0988,40.6576 40.6468,41.7256 39.7788,42.3656 C38.5588,43.2776 37.8228,42.5256 37.2428,42.1296 C37.7308,41.5536 38.0148,40.8296 38.0348,40.0736 C38.0588,39.1496 37.6788,38.2456 36.9948,37.5936 L36.6108,37.2256 C35.7228,36.3776 34.4268,35.8376 33.0508,36.3296 C32.7788,35.6976 32.3028,35.1536 31.6668,34.7496 C30.4308,33.9616 28.8348,33.9936 27.6348,34.8096 C27.4388,34.2416 27.0988,33.7216 26.6228,33.2896 C24.4428,31.2856 22.5468,32.5416 21.7188,33.0136 C21.5668,32.4336 21.2548,31.8856 20.8028,31.4176 C19.4908,30.0696 17.3068,29.8816 15.7708,31.0656 C14.9148,31.7256 14.1828,32.2896 13.5628,32.7696 C12.1108,31.5176 9.3548,27.5696 8.4348,25.8536 C8.1988,25.4136 7.7388,24.8416 7.3268,24.5656 C7.3268,24.5656 5.3468,22.9576 5.1988,22.9256 C6.6308,21.2416 12.9948,13.9136 14.0348,12.7016 L15.7468,13.8616 C16.0228,14.0536 16.3668,14.1096 16.6828,14.0296 C17.3948,13.9296 22.5188,13.6176 25.2028,13.8416 C25.2228,13.8456 25.3068,13.8696 25.5148,13.9656 C23.3828,14.1616 22.7268,14.2336 22.4428,14.3136 C19.6668,15.1096 19.5868,16.9016 19.6908,17.6776 C19.7188,17.9536 19.8748,18.8616 20.6988,19.7576 C22.0468,21.1936 25.8788,21.7256 32.0908,21.3416 C33.1628,21.8776 36.8308,23.5936 40.4348,23.9296 C40.5188,24.1016 52.7348,32.6776 52.7948,32.7256 C53.6308,33.3856 53.1028,34.4896 52.5108,35.2976 Z M55.0188,22.0296 C54.6668,22.3016 54.3948,22.6496 54.2108,23.0496 C53.2428,25.1776 51.5228,27.9696 50.8828,28.7456 C50.7988,28.6056 44.8468,24.3536 43.9228,23.7056 C43.9428,23.7016 43.9668,23.6936 43.9908,23.6896 C44.4748,23.5536 44.9308,23.3696 45.3468,23.1456 C45.9068,22.8376 46.1108,22.1336 45.7988,21.5776 C45.4908,21.0176 44.7868,20.8176 44.2268,21.1256 C43.9628,21.2696 43.6748,21.3816 43.3628,21.4736 C39.4188,22.5736 32.9468,19.1896 32.8828,19.1576 C32.6908,19.0536 32.4748,19.0056 32.2628,19.0216 C26.3868,19.4096 23.0308,18.8576 22.4068,18.1936 C22.2348,18.0056 21.9948,17.4016 21.9908,17.3736 C21.9668,17.2176 21.9148,16.8576 23.0508,16.5336 C23.3788,16.4696 25.4068,16.2896 27.1948,16.1296 C31.2628,15.7656 34.4548,15.4696 35.4548,15.2136 C36.1508,15.0376 36.7508,14.8536 37.3028,14.6856 C38.0828,14.4496 38.7468,14.2456 39.4628,14.1416 C41.6508,13.8136 46.2868,14.3256 46.8668,14.4216 C47.2108,14.5056 47.5828,14.4376 47.8668,14.2176 L49.1748,13.2056 L56.0108,21.2656 L55.0188,22.0296 Z" id="Stroke-3" stroke="#075F9E" stroke-width="0.25"></path>
                    <path d="M55.2064,12.07 C53.2624,12.07 51.6744,10.486 51.6744,8.538 C51.6744,6.594 53.2624,5.01 55.2064,5.01 C57.1504,5.01 58.7344,6.594 58.7344,8.538 C58.7344,10.486 57.1504,12.07 55.2064,12.07 M55.2064,7.362 C54.5584,7.362 54.0304,7.89 54.0304,8.538 C54.0304,9.19 54.5584,9.718 55.2064,9.718 C55.8544,9.718 56.3824,9.19 56.3824,8.538 C56.3824,7.89 55.8544,7.362 55.2064,7.362" id="Fill-5" fill="#075F9E"></path>
                    <path d="M9.812,4.8672 C11.516,5.8112 12.128,7.9632 11.184,9.6632 C10.24,11.3672 8.084,11.9832 6.388,11.0392 C4.684,10.0952 4.064,7.9432 5.012,6.2392 C5.956,4.5392 8.108,3.9232 9.812,4.8672 M7.528,8.9792 C8.092,9.2952 8.812,9.0912 9.128,8.5232 C9.44,7.9552 9.236,7.2392 8.668,6.9232 C8.1,6.6112 7.384,6.8112 7.068,7.3832 C6.752,7.9512 6.96,8.6672 7.528,8.9792" id="Fill-7" fill="#075F9E"></path>
                </g>
            </g>
        </g>
    </g>
</svg>